<svg id="Layer_2" data-name="Layer 2" xmlns="http://www.w3.org/2000/svg" viewBox="0 0 450.71 79.37"><title>servizi_amici</title><path d="M83.71,59.16a7.65,7.65,0,0,1,1.74-.21c3.22,0,5.12,1.7,5.12,5.08S88,68.87,85.12,68.87a6.8,6.8,0,0,1-1.41-.14V59.16Zm-2,8.32c0,1.14.12,2.07-.85,2.72v0.06h4.63c4.32,0,7.24-2.66,7.24-6.47S90,57.56,85.63,57.56H80.89v0.06c1,0.29.85,1.7,0.85,2.59v7.28Z"/><path d="M94.32,67.56c0,0.87.12,2.3-.85,2.65v0.06h3.67V70.21c-1-.37-0.85-1.78-0.85-2.65V60.28c0-.87-0.12-2.3.85-2.66V57.56H93.47v0.06c1,0.37.85,1.78,0.85,2.66v7.28Z"/><path d="M108.48,58.95h1.74a1.59,1.59,0,0,1,1.66.77h0.06l0.62-2.3H112.5a2.15,2.15,0,0,1-.89.13h-7.68a3,3,0,0,1-.73-0.13h-0.06l-0.68,2.3h0.06a3.35,3.35,0,0,1,2.3-.77h1.7v8.61c0,0.87.12,2.28-.85,2.65v0.06h3.82V70.21c-1-.6-1-1.35-1-2.45V58.95Z"/><path d="M113.58,57.56v0.06c1,0.37.85,1.78,0.85,2.66v7.28c0,0.87.13,2.3-.85,2.64v0.06h3.69V70.21c-1-.35-0.87-1.76-0.87-2.64V58.91a10.3,10.3,0,0,1,1.31-.16,2.22,2.22,0,0,1,2.49,2.14c0,1.82-1.8,2.53-3.34,2.76l1.78,2.72L121,69.3a2.54,2.54,0,0,0,2.24,1H125a13.59,13.59,0,0,1-3.13-2.7l-2.78-3.49a3.77,3.77,0,0,0,3.07-3.4c0-1.76-1.41-3.11-4-3.11h-4.6Z"/><path d="M126.71,64.06h1.43a1.85,1.85,0,0,1,1.72.54h0.06v-2h-0.06a2,2,0,0,1-.85.12h-2.3V59.08a10.88,10.88,0,0,1,2-.13,2.71,2.71,0,0,1,2.28.77H131V57.46H131a2,2,0,0,1-.91.1h-6.18v0.06c1,0.37.87,1.78,0.87,2.66v7.28c0,0.87.12,2.3-.87,2.65v0.06h8.05l0.87-2.53h-0.06a4.81,4.81,0,0,1-3.57,1.14l-2.45-.23V64.06Z"/><path d="M135.38,60.28l6.62,8.4a5.33,5.33,0,0,0,2.82,2.2V60c0-1.08,0-1.85,1-2.43V57.56h-3.4v0.06c1,0.58,1,1.35,1,2.43v7.32l-7.07-8.92-0.27-.39a1.19,1.19,0,0,1-.29-0.48v0H133v0.06c1,0.58,1,1.35,1,2.43v7.71c0,1.08,0,1.85-1,2.45v0.06h3.42V70.21c-1-.6-1-1.37-1-2.45V60.28Z"/><path d="M152.12,58.95h1.74a1.59,1.59,0,0,1,1.66.77h0.06l0.62-2.3h-0.06a2.15,2.15,0,0,1-.89.13h-7.68a3,3,0,0,1-.73-0.13h-0.06l-0.68,2.3h0.06a3.35,3.35,0,0,1,2.3-.77h1.7v8.61c0,0.87.12,2.28-.85,2.65v0.06h3.82V70.21c-1-.6-1-1.35-1-2.45V58.95Z"/><path d="M163.25,58.62c3.05,0,4.85,2.72,4.85,5.54a4.69,4.69,0,0,1-4.81,5c-3,0-4.94-2.78-4.94-5.48a4.76,4.76,0,0,1,4.9-5.08m0.14-1.39a6.87,6.87,0,0,0-7.24,6.64,6.76,6.76,0,0,0,7,6.7,6.89,6.89,0,0,0,7.11-6.8,6.66,6.66,0,0,0-6.91-6.55"/><path d="M89.78,53.7h2.84V53.64c-1-.37-0.87-1.78-0.87-2.65V43.72c0-.89-0.12-2.3.87-2.66l0-.06H88.93v0.06c1,0.37.85,1.78,0.85,2.64v5.81a2.54,2.54,0,0,1-.41,1.76,3.41,3.41,0,0,1-2.82,1.35c-2,0-3.07-1.2-3.07-3.77V43.7c0-.87-0.12-2.28.85-2.64V41H80.66v0.06c1,0.37.85,1.78,0.85,2.64v5.16c0,1.39,0,2.68,1,3.8A4.74,4.74,0,0,0,86,54a4.81,4.81,0,0,0,3.79-1.58V53.7Z"/><path d="M96.19,43.72l6.62,8.4a5.33,5.33,0,0,0,2.82,2.2V43.49c0-1.08,0-1.85,1-2.43V41h-3.4v0.06c1,0.58,1,1.35,1,2.43v7.32l-7.07-8.92L96.9,41.5A1.2,1.2,0,0,1,96.61,41v0H93.79v0.06c1,0.58,1,1.35,1,2.43v7.71c0,1.08,0,1.85-1,2.45V53.7h3.42V53.64c-1-.6-1-1.37-1-2.45V43.72Z"/><path d="M108.22,51c0,0.87.12,2.3-.85,2.65V53.7H111V53.65c-1-.37-0.85-1.78-0.85-2.65V43.72c0-.87-0.12-2.3.85-2.66V41h-3.67v0.06c1,0.37.85,1.78,0.85,2.66V51Z"/><path d="M117.76,51.42L114.69,43a7.86,7.86,0,0,1-.52-1.8l0-.23h-2.82v0.06a5.78,5.78,0,0,1,1.51,2.76l2.92,7.9c0.56,1.52,1,1.68,2.36,2.57L123.24,41h-2.88v0.06c1.2,0.48.54,2.07,0,3.44Z"/><path d="M126.72,47.5h1.43a1.86,1.86,0,0,1,1.72.54h0.06V46h-0.06a2,2,0,0,1-.85.12h-2.3V42.52a10.88,10.88,0,0,1,2-.13,2.71,2.71,0,0,1,2.28.77H131V40.9H131a2,2,0,0,1-.91.1h-6.18v0.06c1,0.37.87,1.78,0.87,2.66V51c0,0.87.12,2.3-.87,2.65V53.7h8.05l0.87-2.53h-0.06a4.81,4.81,0,0,1-3.57,1.14l-2.45-.23V47.5Z"/><path d="M133.08,41v0.06c1,0.37.85,1.78,0.85,2.66V51c0,0.87.13,2.3-.85,2.64V53.7h3.69V53.64c-1-.35-0.87-1.76-0.87-2.64V42.35a10.12,10.12,0,0,1,1.31-.16,2.22,2.22,0,0,1,2.49,2.14c0,1.82-1.8,2.53-3.34,2.76l1.78,2.72,2.36,2.92a2.54,2.54,0,0,0,2.24,1h1.78a13.56,13.56,0,0,1-3.13-2.7l-2.78-3.49a3.77,3.77,0,0,0,3.07-3.4c0-1.76-1.41-3.11-4-3.11h-4.6Z"/><path d="M152.18,41.11a9.7,9.7,0,0,0-2.88-.42c-2.36,0-4.85.93-4.85,3.36,0,4.09,6.64,3.55,6.64,6.57,0,1.35-1.66,2-2.76,2a6.69,6.69,0,0,1-4.23-1.6l0.56,2.41a10,10,0,0,0,3.46.58c3,0,5.18-1.93,5.18-4,0-3.57-6.64-3.53-6.64-6.18,0-1.33,1.39-1.76,2.49-1.76a4.4,4.4,0,0,1,3,1.22V41.11Z"/><path d="M154.74,51c0,0.87.12,2.3-.85,2.65V53.7h3.67V53.65c-1-.37-0.85-1.78-0.85-2.65V43.72c0-.87-0.12-2.3.85-2.66V41h-3.67v0.06c1,0.37.85,1.78,0.85,2.66V51Z"/><path d="M163.9,42.39h1.74a1.59,1.59,0,0,1,1.66.77h0.06l0.62-2.3h-0.06A2.15,2.15,0,0,1,167,41h-7.68a3.08,3.08,0,0,1-.73-0.14h-0.06l-0.68,2.3h0.06a3.35,3.35,0,0,1,2.3-.77h1.7V51c0,0.87.12,2.28-.85,2.65V53.7h3.82V53.64c-1-.6-1-1.35-1-2.45V42.39Z"/><path d="M174.5,47.5h-3.8l1.91-4.87Zm0.56,1.43,1,2.72c0.52,1.35.68,1.56-.27,2V53.7h4V53.64c-1.1-.56-1.45-1.64-1.89-2.74l-4-9.91h-3.05v0.06c0.93,0.29.56,1.1,0.29,1.8L167.9,50.9c-0.42,1.1-.75,2.18-1.87,2.74V53.7h3.55V53.64c-0.93-.35-0.79-0.91-0.39-2l1-2.72h4.87Zm-3.71-11.45-1.06,1.43,5.25,1.56Z"/><path d="M188.75,42.6a7.65,7.65,0,0,1,1.74-.21c3.22,0,5.12,1.7,5.12,5.08s-2.57,4.85-5.45,4.85a6.8,6.8,0,0,1-1.41-.14V42.6Zm-2,8.32c0,1.14.12,2.07-.85,2.72V53.7h4.63c4.33,0,7.24-2.66,7.24-6.47S195.06,41,190.66,41h-4.73v0.06c1,0.29.85,1.7,0.85,2.59v7.28Z"/><path d="M201.24,47.5h1.43a1.85,1.85,0,0,1,1.72.54h0.06V46h-0.06a2,2,0,0,1-.85.12h-2.3V42.52a10.88,10.88,0,0,1,2-.13,2.71,2.71,0,0,1,2.28.77h0.06V40.9h-0.06a2,2,0,0,1-.91.1H198.4v0.06c1,0.37.87,1.78,0.87,2.66V51c0,0.87.12,2.3-.87,2.65V53.7h8.05l0.87-2.53h-0.06a4.81,4.81,0,0,1-3.57,1.14l-2.45-.23V47.5Z"/><path d="M218.66,41a14.6,14.6,0,0,0-3-.33c-4.67,0-8,2.59-8,6.74,0,3.88,2.92,6.59,7.86,6.59a25,25,0,0,0,4.62-.58,2.2,2.2,0,0,1-.1-0.87V48.12a2.28,2.28,0,0,1,.1-0.83V47.23h-3v0.06c0.87,0.35.89,1.29,0.89,2.18v2.78a9.78,9.78,0,0,1-2.68.37,5.44,5.44,0,0,1-5.52-5.46,5,5,0,0,1,5.31-5.08,4.72,4.72,0,0,1,3.44,1.16h0.06V41Z"/><path d="M224,52.14V43.72c0-.87-0.14-2.3.85-2.67V41H221.2v0.06c1,0.37.87,1.78,0.87,2.67V51c0,0.87.12,2.3-.87,2.65V53.7h7.94l1-2.57h-0.06a4.75,4.75,0,0,1-3.42,1.18Z"/><path d="M231.4,51c0,0.87.12,2.3-.85,2.65V53.7h3.67V53.65c-1-.37-0.85-1.78-0.85-2.65V43.72c0-.87-0.12-2.3.85-2.66V41h-3.67v0.06c1,0.37.85,1.78,0.85,2.66V51Z"/><path d="M248.52,41.11a9.7,9.7,0,0,0-2.88-.42c-2.36,0-4.85.93-4.85,3.36,0,4.09,6.64,3.55,6.64,6.57,0,1.35-1.66,2-2.76,2a6.69,6.69,0,0,1-4.23-1.6L241,53.43a10,10,0,0,0,3.46.58c3,0,5.18-1.93,5.18-4,0-3.57-6.64-3.53-6.64-6.18,0-1.33,1.39-1.76,2.49-1.76a4.4,4.4,0,0,1,3,1.22V41.11Z"/><path d="M255.6,42.39h1.74a1.59,1.59,0,0,1,1.66.77h0.06l0.62-2.3h-0.06a2.15,2.15,0,0,1-.89.14H251a3.08,3.08,0,0,1-.73-0.14h-0.06l-0.68,2.3h0.06a3.35,3.35,0,0,1,2.3-.77h1.7V51c0,0.87.12,2.28-.85,2.65V53.7h3.82V53.64c-1-.6-1-1.35-1-2.45V42.39Z"/><path d="M269.72,53.7h2.84V53.64c-1-.37-0.87-1.78-0.87-2.65V43.72c0-.89-0.12-2.3.87-2.66l0-.06h-3.67v0.06c1,0.37.85,1.78,0.85,2.64v5.81a2.54,2.54,0,0,1-.41,1.76,3.41,3.41,0,0,1-2.82,1.35c-2,0-3.07-1.2-3.07-3.77V43.7c0-.87-0.12-2.28.85-2.64V41H260.6v0.06c1,0.37.85,1.78,0.85,2.64v5.16c0,1.39,0,2.68,1,3.8a4.74,4.74,0,0,0,3.5,1.35,4.81,4.81,0,0,0,3.79-1.58V53.7Z"/><path d="M276.4,42.6a7.65,7.65,0,0,1,1.74-.21c3.22,0,5.12,1.7,5.12,5.08s-2.57,4.85-5.45,4.85a6.8,6.8,0,0,1-1.41-.14V42.6Zm-2,8.32c0,1.14.12,2.07-.85,2.72V53.7h4.63c4.33,0,7.24-2.66,7.24-6.47S282.72,41,278.31,41h-4.73v0.06c1,0.29.85,1.7,0.85,2.59v7.28Z"/><path d="M287,51c0,0.87.12,2.3-.85,2.65V53.7h3.67V53.65c-1-.37-0.85-1.78-0.85-2.65V43.72c0-.87-0.12-2.3.85-2.66V41h-3.67v0.06c1,0.37.85,1.78,0.85,2.66V51Z"/><path d="M43.24,66.13A7.11,7.11,0,0,0,43,65.07a2.52,2.52,0,0,0-1.57-1.61,1.73,1.73,0,0,0-1.51.48,3.06,3.06,0,0,0-.5,2.2,7.63,7.63,0,0,0,.24.83,2.54,2.54,0,0,0,1.82,1.77,1.86,1.86,0,0,0,1.17-.43,2.94,2.94,0,0,0,.62-2.18m0.84,0.81a2.82,2.82,0,0,1-2.32,2,3.78,3.78,0,0,1-1.51-.15,2.56,2.56,0,0,1-1.41-1.23,3.77,3.77,0,0,1-.41-1.6A3,3,0,0,1,39,64.31a2.75,2.75,0,0,1,1.12-.88c0.22-.08.44-0.09,0.65-0.18l0.3,0a2.71,2.71,0,0,1,1.61.26,1.33,1.33,0,0,0,.37.21,2.94,2.94,0,0,1,1.12,2.13,6,6,0,0,1-.05,1.11m-8.32-.67c0,0.83-.16,1.66-0.22,2.49a2.11,2.11,0,0,1-.89-0.29,1,1,0,0,1-.5-1,1.31,1.31,0,0,1,.36-0.9,1.7,1.7,0,0,1,1.25-.28m2-2.48s0-.12,0-0.16a1.24,1.24,0,0,0-.56,0c-0.24-.05-0.5,0-0.73-0.09s-0.36,0-.53-0.05A4.72,4.72,0,0,0,35,63.37a1.54,1.54,0,0,0,.63.3,3.12,3.12,0,0,1,.29.27A6.4,6.4,0,0,1,35.79,66c0,0.14-.19.07-0.27,0a1,1,0,0,1-.58-0.32,10.31,10.31,0,0,0-1-2A2.64,2.64,0,0,0,32,62.93l0,0.19a2.39,2.39,0,0,1,1.34,1.16,6.69,6.69,0,0,1,.69,1.35c0.09,0.19.16,0.39,0.24,0.57a3.94,3.94,0,0,0-.56.29,1.54,1.54,0,0,0-.44.59,1.57,1.57,0,0,0,.11,1.11,1.25,1.25,0,0,0,.74.54,3,3,0,0,0,.85.19,1.32,1.32,0,0,0,.58,0,5.32,5.32,0,0,0,.86.13h0.4l0.3,0.09c0-.06,0-0.2,0-0.27l-0.21,0a0.64,0.64,0,0,1-.54-0.41,12.85,12.85,0,0,1,.09-2l0-.08a19.8,19.8,0,0,1,.21-2c0.05-.13.11-0.27,0.16-0.4a2.73,2.73,0,0,1,.59-0.22h0.25m-10-1.58a3,3,0,0,0-1,1.55L26.74,64c0,0.08-.05.16-0.09,0.23a16.9,16.9,0,0,1-.74,1.89,0.77,0.77,0,0,1-.8.24,0.73,0.73,0,0,0,.63.33l0.38,0.13a8.31,8.31,0,0,0,1.12.4l0.11-.16a1.79,1.79,0,0,1-.86-0.74,1.58,1.58,0,0,1,.06-0.6,12.66,12.66,0,0,1,1.08-2.94,1.31,1.31,0,0,1,.79-0.54,2.2,2.2,0,0,1,1.31.33,1.57,1.57,0,0,1,.72,1.51,9.31,9.31,0,0,1-.56,2,2.84,2.84,0,0,1-.61,1.31,3.55,3.55,0,0,1-1,0,0.44,0.44,0,0,0,.21.2c0.79,0.29,1.61.52,2.4,0.82A1.32,1.32,0,0,1,31,68.3a2.4,2.4,0,0,1-.63-0.48,1.38,1.38,0,0,1,.06-1.08c0.22-.57.37-1.16,0.57-1.73a2.57,2.57,0,0,0,.19-1.72,2.28,2.28,0,0,0-1.41-1.16,4.3,4.3,0,0,0-1.17-.2,1.83,1.83,0,0,0-.83.28m18-.08a8.33,8.33,0,0,1,.87-0.27c0.09,0.25-.3.3-0.46,0.41a0.69,0.69,0,0,0-.2.54,17,17,0,0,0,.61,1.9c0,0.15.09,0.31,0.15,0.46a9.21,9.21,0,0,0,.74,1.76,4.48,4.48,0,0,0,.92.07l0.06,0.12c-0.43.09-.82,0.26-1.24,0.38s-0.75.23-1.12,0.4l-0.22,0a1.38,1.38,0,0,1,.45-0.43,1.54,1.54,0,0,0,.2-0.34,1.66,1.66,0,0,0-.1-0.58c-0.06-.15-0.11-0.31-0.16-0.47l-0.15-.47c-0.2-.58-0.43-1.17-0.6-1.76a1.67,1.67,0,0,0-.68-1.08A5.91,5.91,0,0,1,44,62.71c0.57-.24,1.17-0.37,1.75-0.59m7.38,2.14C52.76,63.65,52.41,63,52,62.45c-0.11-.18-0.21-0.35-0.3-0.53s-0.08-.09-0.11-0.13l0-.11a1.72,1.72,0,0,1-.16-0.25c-0.1-.19-0.22-0.36-0.33-0.54l-0.19-.3a1.51,1.51,0,0,0-.39-0.26,1.11,1.11,0,0,0-.73.14,2,2,0,0,0-.9,1,2.2,2.2,0,0,0,.18,2A2.55,2.55,0,0,0,50.88,65a1.93,1.93,0,0,0,.79.05l0.13-.08a1.49,1.49,0,0,0,.73-0.18c0.13,0,.25-0.12.38-0.17s0.3-.15.2-0.31M54.3,64a14.93,14.93,0,0,1-2.21,1.29c-0.25.1-.5,0.16-0.75,0.25a4.75,4.75,0,0,1-1,0,2.73,2.73,0,0,1-2.29-2.32,2.91,2.91,0,0,1,0-1,3.25,3.25,0,0,1,.48-1,12.85,12.85,0,0,1,3.33-2.25c0.17,0.19-.1.34-0.22,0.47a0.67,0.67,0,0,0-.19.6,8.31,8.31,0,0,0,.65,1.13c0.25,0.46.54,0.9,0.81,1.35a4.89,4.89,0,0,0,.9,1.23,6.57,6.57,0,0,0,1-.1,2.32,2.32,0,0,1-.49.37M20.76,57a1.07,1.07,0,0,1,.4.15,5.24,5.24,0,0,0,1,.74,4.48,4.48,0,0,1,.85.68l-0.17,0a0.75,0.75,0,0,0-1-.08,20.41,20.41,0,0,0-1.37,2.13,8.63,8.63,0,0,0-.58.92l0.14,0c0.65-.42,1.32-0.81,2-1.2,0.17-.11.35-0.2,0.53-0.3s0.26-.16.38-0.27c0.37-.16.67-0.44,1-0.6l0.14,0.05C24,59.62,24,60,23.86,60.35c-0.14.73-.33,1.45-0.47,2.17a6.4,6.4,0,0,0-.25,1.21c0.35-.37.64-0.81,1-1.19s0.62-.78.94-1.16a0.8,0.8,0,0,0,.28-0.61,0.85,0.85,0,0,0-.23-0.5C25,60.19,25,60.11,24.89,60L25,60c0.46,0.31.9,0.66,1.37,1a2.6,2.6,0,0,1,.43.33c-0.15.18-.36,0-0.52-0.06a1.53,1.53,0,0,0-1.06.63c-0.65.78-1.33,1.52-2,2.28a0.82,0.82,0,0,0-.26.64,1,1,0,0,0,.4.61l-0.15.19c-0.44-.38-0.92-0.69-1.37-1a1.35,1.35,0,0,0,.44-0.83c0.07-.42.17-0.83,0.25-1.25a5.4,5.4,0,0,0,.14-0.78c0.08-.3.15-0.61,0.22-0.91s0.08-.4.11-0.59c-1,.54-1.92,1.14-2.86,1.73a1.45,1.45,0,0,0-.79.9c-0.43-.29-0.85-0.59-1.28-0.88A0.34,0.34,0,0,1,18,61.6a1.07,1.07,0,0,0,.85.09,6.2,6.2,0,0,0,1-1.38,4.36,4.36,0,0,0,.33-0.59,14.7,14.7,0,0,0,.93-1.54,0.82,0.82,0,0,0,0-.64A2.42,2.42,0,0,1,20.76,57m34.48-1a4.57,4.57,0,0,0-1.18.7,3.31,3.31,0,0,0-.56.78A2,2,0,0,0,53.45,59c0.11,0.16.2,0.31,0.3,0.47a8.53,8.53,0,0,0,.85,1A7.39,7.39,0,0,1,56,62.11a0.87,0.87,0,0,1-.12.57,0.28,0.28,0,0,0,0,.31c0.36-.31.66-0.68,1-1a2.4,2.4,0,0,0,.64-0.76,1.78,1.78,0,0,0-.69.33,4.16,4.16,0,0,0-.44,0,6.19,6.19,0,0,1-.92-0.71,13.3,13.3,0,0,1-1.2-1.27,2.71,2.71,0,0,1-.6-0.93A1.19,1.19,0,0,1,54,57.55a2.19,2.19,0,0,1,1.26-.8,2.25,2.25,0,0,1,1.4.51c0.23,0.19.4,0.47,0.61,0.68a14.62,14.62,0,0,1,1.32,1.4,0.72,0.72,0,0,1,.1.46,2.3,2.3,0,0,0-.4.81l0.18,0c0.58-.66,1.28-1.21,1.88-1.85l-0.08-.14a2.43,2.43,0,0,1-.7.33,0.84,0.84,0,0,1-.4-0.14c-0.55-.54-1.12-1.07-1.65-1.64-0.17-.25-0.44-0.4-0.64-0.63a3.54,3.54,0,0,0-.67-0.39,2,2,0,0,0-1,0m-17.68-3.8a2.49,2.49,0,0,1,.46.86c0,0.32.08,0.64,0.05,1a1.62,1.62,0,0,0,.36.91,1.68,1.68,0,0,1-.58-0.64A4.35,4.35,0,0,1,37.71,53a5.61,5.61,0,0,1-.15-0.71M15.48,52c-1.1.47-2,1.29-3.11,1.78H12a1,1,0,0,0-.52-0.29,1.51,1.51,0,0,0,.38.68c0.32,0.4.54,0.85,0.89,1.23H12.9a1.74,1.74,0,0,1-.23-1.06,7.3,7.3,0,0,1,2-1.55,7.33,7.33,0,0,1,1.23-.61,1.6,1.6,0,0,1,.64.05l0.23,0.13a2,2,0,0,1,.78,2.06,3.21,3.21,0,0,1-.47.69,13.52,13.52,0,0,1-1.27.94,6.91,6.91,0,0,1-1.37.83,1.13,1.13,0,0,1-.82-0.51H13.36a4.72,4.72,0,0,0,.61.88,3,3,0,0,0,.45.63,2.77,2.77,0,0,0,.49.74l0.17,0a1.67,1.67,0,0,1-.22-0.88c0.07-.11.16-0.2,0.24-0.31a12.71,12.71,0,0,1,1.58-1.06,4.6,4.6,0,0,0,1.45-1.16,1.91,1.91,0,0,0,.25-0.95A2.74,2.74,0,0,0,18,53.24a2.4,2.4,0,0,0-1.64-1.42,2.23,2.23,0,0,0-.9.13m22.77-.31c0.14,0.2.24,0.43,0.37,0.64a7,7,0,0,0,.47.61,2.1,2.1,0,0,1,.62.9,6.25,6.25,0,0,0-.55-0.48,1.86,1.86,0,0,1-.64-0.54,1.9,1.9,0,0,1-.2-0.65,1.13,1.13,0,0,1-.07-0.48m20.38-.44a10.16,10.16,0,0,0-.61.91c-0.32.53-.7,1-1,1.56l0.13,0.12a1.14,1.14,0,0,1,1-.57,3.87,3.87,0,0,1,.61.31c1.13,0.67,2.23,1.35,3.35,2a1.93,1.93,0,0,1-1.26,1.29c-0.27,0-.54-0.12-0.81-0.11l0.14,0.17c0.47,0.22.9,0.49,1.36,0.72a3.49,3.49,0,0,0,0-.49c0.36-.52.65-1.1,1-1.61a0.43,0.43,0,0,0,0-.09c0.38-.54.7-1.12,1.06-1.66l0.26-.13h0.24a15.62,15.62,0,0,0-1.31-1.07l-0.13.15a2.4,2.4,0,0,1,.43.75,1,1,0,0,1-.07.6c-0.17.3-.35,0.59-0.54,0.87a11.08,11.08,0,0,1-1.06-.61l-1.87-1.17a3,3,0,0,1-1.06-.85V51.82a0.51,0.51,0,0,0,.06-0.62M34.2,50.61l0.09-.05a1.86,1.86,0,0,0,.45.71c0.22,0.19.41,0.4,0.62,0.61a2.84,2.84,0,0,1,.22,1,1.94,1.94,0,0,1-.29-0.51c-0.2-.25-0.46-0.44-0.65-0.68a2.43,2.43,0,0,1-.44-1M48.09,52a3.45,3.45,0,0,0-.83,1.06,1.69,1.69,0,0,0,0,.2,10.25,10.25,0,0,1,1.21-.85c-0.08.22-.13,0.44-0.19,0.67a2.56,2.56,0,0,0-.12.47,6.73,6.73,0,0,0,1.72-1,3.5,3.5,0,0,0,.85-1.49,8.55,8.55,0,0,0-2.63,1m2.46,0.27a4.93,4.93,0,0,1-2.07,1.5,9.61,9.61,0,0,1-1.4.51,5.68,5.68,0,0,0,.67-1,8.85,8.85,0,0,0-1.47,1.38c0.12-.52.39-1,0.52-1.5A3.2,3.2,0,0,1,47.63,52a3.47,3.47,0,0,1,1.79-.88,6.91,6.91,0,0,0,1.37-.4c0.17-.12.33-0.27,0.5-0.4a4.25,4.25,0,0,1-.74,2m-15.28-2a3.79,3.79,0,0,0,.53.78,3.23,3.23,0,0,1,.65.81,1.36,1.36,0,0,1,.07.72c-0.13-.14-0.09-0.35-0.2-0.49A1.2,1.2,0,0,0,36,51.73a1.67,1.67,0,0,1-.71-1.45M22.15,51.35a3.84,3.84,0,0,1-.56-0.56,4.72,4.72,0,0,0-.18,1.44A1.69,1.69,0,0,0,22,53.4a9.46,9.46,0,0,1,.13-1.68,3.65,3.65,0,0,1,.19.47c0,0.13.09,0.25,0.15,0.37a6.37,6.37,0,0,1,.51.51L23,53a2.58,2.58,0,0,0-.88-1.67m1.14,2.2A4.79,4.79,0,0,1,23,54,1.57,1.57,0,0,0,22.36,53c0,0.16,0,.32,0,0.47,0.18,0.19.34,0.4,0.51,0.61a3.8,3.8,0,0,1-1.13-.41,1.84,1.84,0,0,1-.67-1.18c0-.29,0-0.58,0-0.87s0.09-.64.19-1,0.07-.32.1-0.48,0.1-.4.14-0.61h0.07A3.56,3.56,0,0,0,22,50.72a4.11,4.11,0,0,1,1.17,1.37,2.23,2.23,0,0,1,.12,1.47m10.48-4.62a6.34,6.34,0,0,0,.45.67,3.87,3.87,0,0,1,.77.93,0.8,0.8,0,0,1,0,.7,3.68,3.68,0,0,1-.12-0.41c-0.2-.4-0.69-0.52-0.89-0.92a1.72,1.72,0,0,1-.24-1M54.22,51a8.81,8.81,0,0,1-.16-1.5A2.6,2.6,0,0,0,53.22,51c0,0.26-.09.52-0.15,0.78S53,52.05,53,52.22c0.32-.25.37-0.7,0.67-1,0,0.44.14,0.88,0.13,1.32a1.82,1.82,0,0,0,.4-0.69,2.57,2.57,0,0,0,0-.84m0.22-1.54c-0.07.88,0.36,1.77,0,2.63a2.12,2.12,0,0,1-1.37,1.23,5,5,0,0,0,.25-1,1.74,1.74,0,0,1-.74.48,7.3,7.3,0,0,1-.92.18c0.22-.24.5-0.4,0.73-0.62a2.46,2.46,0,0,0,.33-1c0.06-.26.08-0.52,0.14-0.78a3.16,3.16,0,0,1,.7-1.17,4.19,4.19,0,0,1,1-.72c0,0.26-.12.51-0.17,0.76m-18.82-.88a4.19,4.19,0,0,1,.68.7L37,49.88a2.11,2.11,0,0,0,.95.23A2.31,2.31,0,0,1,38.38,50L38,50.25a1.34,1.34,0,0,1-1,0,2.78,2.78,0,0,1-1.36-1.65m6.93-.19a4.3,4.3,0,0,1-2.06,0c0.35,0.18.72,0.27,1.08,0.42,0.18,0,.33.1,0.5,0.08a3.09,3.09,0,0,0,.6-0.1,1.24,1.24,0,0,0,.79-1,1.79,1.79,0,0,1-.92.67m-2.2,1.22A2,2,0,0,1,38,49.28l0.23-.17a1.51,1.51,0,0,0,.27-0.29,2.65,2.65,0,0,0,.71,0,10,10,0,0,0,1.1.79M42.08,49l-0.22.07a1.41,1.41,0,0,1-1.2.26,2.83,2.83,0,0,1-1.22-.51A1,1,0,0,0,40,48.37a1.93,1.93,0,0,1-.71.23c-0.22,0-.44-0.07-0.66-0.12a6.35,6.35,0,0,1-1.51-1,2.8,2.8,0,0,0,1.42,1.38,1.56,1.56,0,0,1-.7.22,6.4,6.4,0,0,1-.67-0.17,3.84,3.84,0,0,1-1-.79,2.74,2.74,0,0,0-.4-0.38,2.42,2.42,0,0,0,.62,1,1.58,1.58,0,0,0,1.38.56,3.94,3.94,0,0,0,.71.64,2.56,2.56,0,0,0,1,.31,1.7,1.7,0,0,1,.4-0.1,1,1,0,0,0,.37-0.27c0.12-.15.26-0.38,0.48-0.2a1.75,1.75,0,0,0,.69-0.08A1.43,1.43,0,0,0,42.08,49m18.68-1.77a1.73,1.73,0,0,1-.26.22,2.22,2.22,0,0,0-.81,2.31,1.87,1.87,0,0,0,.5.76,1.78,1.78,0,0,0,1,.33A4.06,4.06,0,0,0,63,49.92a2.74,2.74,0,0,1,.92-0.37,1.56,1.56,0,0,1,.56.17,0.81,0.81,0,0,1,.33,1.08,1,1,0,0,1-.68.57c-0.34,0-.68-0.06-1-0.08a0.4,0.4,0,0,0,.22.26c0.35,0.06.62,0.35,1,.42a2.91,2.91,0,0,0,.81-0.91,0.57,0.57,0,0,1,0-.11,1.94,1.94,0,0,0-.27-1.75,2,2,0,0,0-.65-0.41c-0.22,0-.43,0-0.64,0a2.34,2.34,0,0,0-.83.3,7.42,7.42,0,0,1-1.41.83l-0.35.07-0.19-.08A1.05,1.05,0,0,1,60,49.17a1.7,1.7,0,0,1,.12-0.71,1.91,1.91,0,0,1,2.05-.72,1.83,1.83,0,0,0,0-.21,11.62,11.62,0,0,1-1.26-.33l-0.12,0m-23.13-.44a0.29,0.29,0,0,1,.33.14h0a3.53,3.53,0,0,0,1.29.67,2.26,2.26,0,0,0,.64,0,2,2,0,0,0,.78-0.31c-0.1.16-.22,0.29-0.33,0.44a3.78,3.78,0,0,1-.71.22,2.29,2.29,0,0,1-1.17-.4,8.19,8.19,0,0,1-.84-0.8M28.57,48a3.4,3.4,0,0,0-.35,1.95,3.5,3.5,0,0,0,1,1.3,1.87,1.87,0,0,0-.07-0.51,6,6,0,0,0-.17-0.6c0.19,0.07.35,0.17,0.53,0.26s0.42,0.4.65,0.57a2,2,0,0,0-.24-0.63A13.66,13.66,0,0,1,28.57,48m1.51,4.64A1.8,1.8,0,0,1,30,52a1.79,1.79,0,0,0-.16-0.66c-0.09-.13-0.19-0.26-0.29-0.38a3.72,3.72,0,0,1-.25,1.62,3,3,0,0,0-.47-1.13,4.52,4.52,0,0,1-.9-1.2,2,2,0,0,1-.09-0.81,4.33,4.33,0,0,1,.38-1.52c0.24-.39.44-0.8,0.64-1.21a6.56,6.56,0,0,1,.07,1.1A2.65,2.65,0,0,0,29.44,49a5.31,5.31,0,0,1,1.09,2.18,3.63,3.63,0,0,1-.44,1.5m4.59-7.24a0.85,0.85,0,0,1,.22.29,5.35,5.35,0,0,1,.29.54v0.29L35,46.69a0.75,0.75,0,0,1-.6-0.13,3.33,3.33,0,0,1-.76-0.82c0.25,0.11.39,0.36,0.64,0.48a0.92,0.92,0,0,0,.6.14,3,3,0,0,0-.2-1m1.78-.1a2.69,2.69,0,0,1,.33,1c-0.06.08-.14,0.15-0.21,0.22a2.46,2.46,0,0,1-.68-0.33c-0.23-.16-0.39-0.39-0.61-0.55a2.59,2.59,0,0,0,.43.58,1.45,1.45,0,0,0,1.13.61l0.25-.24V46.3a3.79,3.79,0,0,1-.17-0.4,2.11,2.11,0,0,0-.47-0.6m-23.15.41a6.26,6.26,0,0,1,1.15-.43,2.11,2.11,0,0,1-.33.73c-0.38.66-.7,1.36-1.12,2a10,10,0,0,1-.5,1c-0.26.53-.57,1-0.82,1.58a6.92,6.92,0,0,0,1.09-.36,11.31,11.31,0,0,0,2.11-.9,1.71,1.71,0,0,0,.26-0.44c0-.24,0-0.48,0-0.72a0.53,0.53,0,0,1,.29.42c0.21,0.62.44,1.23,0.65,1.84-0.23.13-.26-0.15-0.38-0.28a2.68,2.68,0,0,0-.47-0.32,18.5,18.5,0,0,0-1.85.4,0.12,0.12,0,0,0,0,.05,5.84,5.84,0,0,0-.79.27,3.53,3.53,0,0,0-1.44.73,1.5,1.5,0,0,0-.09,1.06H10.82c-0.12-.36-0.25-0.71-0.36-1.07a1.68,1.68,0,0,1,.31-0.82c0.36-.54.58-1.16,0.94-1.7s0.68-1.23,1-1.86a3,3,0,0,0,.36-0.7c-0.8.26-1.58,0.58-2.37,0.86a1.86,1.86,0,0,0-1,.6,1.25,1.25,0,0,0,0,.9l-0.15.09c-0.28-.67-0.52-1.34-0.75-2l0.12-.08a1.09,1.09,0,0,0,.78.47,11.06,11.06,0,0,0,1.67-.52,6.24,6.24,0,0,0,.76-0.26,3.23,3.23,0,0,1,.79-0.27l0.46-.2m7.1-.83a1.76,1.76,0,0,1-1,.09L19.32,45a3.17,3.17,0,0,0,.59.2A1.41,1.41,0,0,0,20.45,45a0.59,0.59,0,0,0,0-.11M43.2,45.34a3.75,3.75,0,0,0,.68-0.72,1.63,1.63,0,0,1-.93,1.32c0,0.11.07,0.31-.11,0.23,0-.05,0-0.16,0-0.21a3.25,3.25,0,0,1-2.08-.12,1.34,1.34,0,0,1-.68-0.36,9.45,9.45,0,0,1,1.23.25h0.29a0.85,0.85,0,0,1,.52-0.08,1.86,1.86,0,0,0,1-.31m-24.67-.57a2,2,0,0,1,1.48-.1l0.33-.12a0.74,0.74,0,0,0,.7,0,0.38,0.38,0,0,0,.32.23c-0.11-.19-0.22-0.37-0.34-0.55l-0.14.22a1,1,0,0,1-.45-0.18,1.15,1.15,0,0,1-.51,0,1.62,1.62,0,0,0-1,.14,1.73,1.73,0,0,1-.09-0.29,5.69,5.69,0,0,0-.31.61m0.92-1.27a0.72,0.72,0,0,1,.53.11,2.15,2.15,0,0,1,.5-0.09l0.19,0.32a1.92,1.92,0,0,0-.66.11,4.42,4.42,0,0,1-.56-0.14l-0.31.09a0.64,0.64,0,0,1,.31-0.39m13.62-.92A3.87,3.87,0,0,0,33,43l0.11,0.16L33.24,43a0.77,0.77,0,0,1,.08.5l0.21-.27a4.25,4.25,0,0,1,.58.41,1.16,1.16,0,0,0-.62-0.87l-0.22-.11-0.19-.09m-12.31-.2,0.13-.11L21,42.35a4.14,4.14,0,0,1,.75-0.1,2.8,2.8,0,0,1-.16.3,1.78,1.78,0,0,0-.4.07c0,0.09-.08.18-0.12,0.26L20.9,43c0.1-.3-0.25-0.41-0.48-0.33,0,0,0-.14,0-0.19l0.33-.05m-3.06-.15a0.76,0.76,0,0,0,.25.31,2.15,2.15,0,0,0,.54.07,3.62,3.62,0,0,0,.21.39l0.12-.29a1.84,1.84,0,0,1,.54.06,1.77,1.77,0,0,0-.23-0.36,5.25,5.25,0,0,0-.61,0,4.77,4.77,0,0,0-.82-0.16m24.55,0.25A2.75,2.75,0,0,1,44,42.2l-0.26.11a1.42,1.42,0,0,0-.4.07L43,42.44a2.35,2.35,0,0,0-1.14,1,1,1,0,0,1,.35-1m-28.71-.35a1.48,1.48,0,0,1-.16.6L13,43a8.68,8.68,0,0,1-1,.16,3.88,3.88,0,0,1-.58.08,3.2,3.2,0,0,1-.93.15,0.38,0.38,0,0,1-.36.05,0.67,0.67,0,0,1-.3.07,3.82,3.82,0,0,1-.89,0,1.49,1.49,0,0,1-.59-0.81c-0.15-.06-0.12.12-0.12,0.22,0.1,0.75.22,1.5,0.32,2.26a0.22,0.22,0,0,0,.25.19c0-.15,0-0.31,0-0.47s0.16-.33.25-0.49a5.56,5.56,0,0,1,1.17-.28C11.13,44,12,43.82,13,43.7a1,1,0,0,1,.5,0,1.52,1.52,0,0,1,.54.82l0.19-.08C14.05,44,14,43.43,13.9,42.89a3.88,3.88,0,0,0-.24-1.06,0.5,0.5,0,0,0-.11.3m23-1a1.21,1.21,0,0,1,1.06-.4,3.94,3.94,0,0,1,1.09.06v0a2.63,2.63,0,0,0-2,.7,3,3,0,0,0-.32.43,1.64,1.64,0,0,1,.16-0.82M64.67,42l-0.38-.2L64.22,42c0,0.39-.07.78-0.11,1.17l0.05,0.15c0.66-.18,1.34-0.31,2-0.5A10.89,10.89,0,0,0,64.67,42M65,43.82c-0.38.06-.74,0.2-1.12,0.26l-0.6.13c-0.44.08-.88,0.18-1.31,0.3a1.69,1.69,0,0,0-.4.21,2.92,2.92,0,0,0-.43.67L61,45.2A16.74,16.74,0,0,0,61.33,43L61.55,43c0,0.12.05,0.25,0.08,0.37l0.13,0.19L62,43.67a7.84,7.84,0,0,0,1.64-.33,15,15,0,0,0,.24-1.76,7.28,7.28,0,0,0-1.48-.65,0.45,0.45,0,0,0-.53.23,4.32,4.32,0,0,0-.21.6l-0.17-.08c0-.67.18-1.32,0.21-2,0-.05.08-0.16,0.12-0.21a2.66,2.66,0,0,0,.54.95,7.38,7.38,0,0,0,1.37.74c0.83,0.46,1.72.82,2.55,1.25a1.28,1.28,0,0,0,.71.28,1.74,1.74,0,0,0,.37.61c-0.77.21-1.55,0.33-2.32,0.52M8,36.19l0.19,0a1.49,1.49,0,0,0,1.08,1.07c1.47,0.58,2.93,1.21,4.41,1.76l0.2,0.17L9.06,41.12a1.79,1.79,0,0,0-.72.5c0,0.15-.09.3-0.13,0.47H8c0-.83,0-1.65,0-2.48l0.19,0a1.39,1.39,0,0,0,.2.61,0.31,0.31,0,0,0,.4.12A3.07,3.07,0,0,0,9.58,40L9.7,40c0.68-.21,1.33-0.52,2-0.75a3,3,0,0,0,.73-0.34,0.62,0.62,0,0,0-.28-0.19c-0.81-.31-1.61-0.65-2.42-0.95a3,3,0,0,0-1.19-.28,1.45,1.45,0,0,0-.33.89H8q0-1.08,0-2.17M66.37,34a1.19,1.19,0,0,1-1,.52c-0.74.07-1.47,0.11-2.21,0.18a6,6,0,0,1-1.29-.06,1,1,0,0,1-.45-0.37,0.62,0.62,0,0,0-.29-0.43c0,0.78.14,1.56,0.16,2.35l0.18,0c0.07-.23.12-0.45,0.2-0.67a1,1,0,0,1,.6-0.4,24,24,0,0,1,3.18-.33,1,1,0,0,1-.15.26c-0.41.51-.92,0.94-1.37,1.42-0.36.31-.6,0.73-1,1a7.66,7.66,0,0,0-.89.91c-0.21.24-.47,0.44-0.65,0.69,0,0.19.19,0,.27,0,0.33,0,.66-0.05,1,0a0.54,0.54,0,0,1,.49,0c0.26-.12.55,0,0.82-0.1a0.76,0.76,0,0,1,.46,0,0.79,0.79,0,0,1,.47-0.07h0.24a8.72,8.72,0,0,1,1.35,0,0.74,0.74,0,0,1,.39.19c0.19,0.13.14,0.51,0.46,0.43-0.07-.26-0.06-0.53-0.11-0.79,0-.46-0.07-0.92-0.13-1.37l-0.18,0a1.49,1.49,0,0,1-.25.83,1.31,1.31,0,0,1-.6.29l0.09,0.16-0.14-.19c-0.54.11-1.09,0.1-1.65,0.2s-0.89.11-1.34,0.12a2.84,2.84,0,0,1,.57-0.7c0.47-.54,1-1,1.45-1.58a5.44,5.44,0,0,0,.7-0.69c0.38-.37.72-0.78,1.09-1.16-0.06-.44-0.12-0.87-0.18-1.3a1.63,1.63,0,0,0-.36.74M8.91,31.31c0.47,0,.9.22,1.37,0.26a0.91,0.91,0,0,1-.7.19,1.29,1.29,0,0,0-.63.94c0,0.33-.13.67-0.18,1L9,33.84l1.31,0.26L11,34.23c0.06-.25.08-0.5,0.12-0.74a1.2,1.2,0,0,0,0-.85c-0.05-.3-0.47-0.25-0.53-0.54,0.64,0,1.25.23,1.87,0.33v0.12a1,1,0,0,0-.72.3,2.19,2.19,0,0,0-.2.57,3.19,3.19,0,0,0-.14.87c0.33,0.1.67,0.14,1,.22a1.63,1.63,0,0,0,1.2,0,1.83,1.83,0,0,0,.4-1.28,1.2,1.2,0,0,0-.45-1.08,1.41,1.41,0,0,1-.67-0.52,6.42,6.42,0,0,1,1.62.58c0,0.09,0,.18-0.05.27-0.19,1.09-.43,2.17-0.61,3.26-0.06.26-.11,0.51-0.17,0.76l-0.12-.09a1.08,1.08,0,0,0-.39-1,10.42,10.42,0,0,0-1.26-.31c-0.26,0-.52-0.09-0.78-0.15s-0.52-.09-0.78-0.16a3.89,3.89,0,0,0-1.46-.14,1.71,1.71,0,0,0-.58.79l-0.14-.28L8.4,35.24l-0.13-.17a7.39,7.39,0,0,1,.14-0.9c0-.12.06-0.25,0.09-0.37,0.1-.44.12-0.89,0.23-1.34s0.13-.76.19-1.15m56.54-1.6a1.92,1.92,0,0,1-.07.7,0.78,0.78,0,0,1-.44.4c-1.06.4-2.18,0.61-3.26,0.94a2.23,2.23,0,0,0-.45.09l-0.36,0a2.38,2.38,0,0,1-.64-0.75l-0.11.11c0.07,0.28.17,0.55,0.25,0.84,0.19,0.54.29,1.12,0.53,1.65l0.11,0a1.13,1.13,0,0,1,.22-1,3.42,3.42,0,0,1,.92-0.32l0.23-.09,1.55-.47a10.16,10.16,0,0,1,1.36-.33,0.79,0.79,0,0,1,.75.56c0,0.1.16,0.23,0.26,0.11a5.93,5.93,0,0,0-.18-0.73L66,31.23c-0.09-.36-0.21-0.72-0.31-1.09l-0.07-.23-0.06-.19H65.46ZM62.1,26.59a1.9,1.9,0,0,1,1-.4,5.39,5.39,0,0,1,.69.19,5.37,5.37,0,0,1,.53.38,2.2,2.2,0,0,1,.46.88c0,0.11,0,.22.06,0.32s0,0.29,0,.44a9.07,9.07,0,0,1-1.24.5c-0.18,0,0-.23.05-0.25a1.2,1.2,0,0,0,.71-1.15c0-.09-0.05-0.18-0.08-0.26a0.91,0.91,0,0,0-.84-0.49,1.05,1.05,0,0,0-.68.32,2.82,2.82,0,0,0-.37,1.13A3.54,3.54,0,0,1,61.91,30a1.56,1.56,0,0,1-1.12.43A2,2,0,0,1,59,28.73a1.89,1.89,0,0,1,0-1l1.13-.78,0.12,0.19a2.36,2.36,0,0,0-.85,1.25,1.22,1.22,0,0,0,0,.74,1,1,0,0,0,1.17.64,1.75,1.75,0,0,0,.54-0.33,2.4,2.4,0,0,0,.38-1.36,0.75,0.75,0,0,1,.09-0.27,1.66,1.66,0,0,1,.49-1.21M35,27a4.24,4.24,0,0,1-.5.18l-0.4.09c-0.48,0-1,0-1.44,0a10.24,10.24,0,0,1-2.28-.56A8.53,8.53,0,0,1,28.92,26a12.39,12.39,0,0,1-2-1.66,0.56,0.56,0,0,0,.12.26,8.52,8.52,0,0,0,3.77,2.79l0.12,0.08c0.33,0.08.65,0.2,1,.26,1.09,0.18,2.2.16,3.28,0.27A3.14,3.14,0,0,1,35,27m0.77,1.18a4,4,0,0,1-.68,0c-0.36-.07-0.73,0-1.09-0.09a10.27,10.27,0,0,1-3.36-.51,8.75,8.75,0,0,1-3.92-3,0.77,0.77,0,0,1-.12-0.42,1.5,1.5,0,0,1,.08-0.69,2.22,2.22,0,0,0,.3.3,12.47,12.47,0,0,0,1.65,1.55A8.05,8.05,0,0,0,32.68,27a11.2,11.2,0,0,0,1.24,0,1.8,1.8,0,0,0,1.36-.7,4.29,4.29,0,0,0,0,1,2.32,2.32,0,0,0,.45.89m-22.86.38c0,0.13-.08.26-0.13,0.4-0.38-.14-0.73-0.36-1.11-0.47a11.55,11.55,0,0,0-1.21-.57,1.85,1.85,0,0,1,1.31-1.06,2,2,0,0,1,.59.19,1.33,1.33,0,0,1,.56,1.53m4.77-5.17a2.75,2.75,0,0,0-1-.28,7,7,0,0,0-1.71.58,1.22,1.22,0,0,1-1.39-.21,0.76,0.76,0,0,1,0-1.06,1,1,0,0,1,1.17-.33l0.5,0.25,0-.16c-0.29-.3-0.67-0.5-1-0.8a2.48,2.48,0,0,0-.95.75c-0.11.19-.18,0.4-0.29,0.6a4.12,4.12,0,0,1-.06.61,2.09,2.09,0,0,0,.4.93,2.49,2.49,0,0,0,.68.38A2.54,2.54,0,0,0,15,24.63,15.9,15.9,0,0,1,16.6,24a1.23,1.23,0,0,1,1.16.65,1.16,1.16,0,0,1-.33,1.13,1.7,1.7,0,0,1-1.59.26,0.48,0.48,0,0,0-.48,0,4,4,0,0,0,.44.26c0.22,0.09.41,0.23,0.64,0.31,0,0.06.23,0.09,0.17,0.19a2.84,2.84,0,0,1-1,.49,5.27,5.27,0,0,1-1.1.22c-0.33.09-.68,0-1,0.09-0.13,0-.16-0.12-0.22-0.2a1.29,1.29,0,0,0-1.41-1.3,1.26,1.26,0,0,0-.87.39,9.86,9.86,0,0,0-1.2,2.37c0,0.17-.28.38,0,0.49a3.57,3.57,0,0,0,.3-0.45l0.28-.15a3.4,3.4,0,0,1,.86.27c0.83,0.41,1.69.76,2.54,1.14L14,30.3a1.52,1.52,0,0,0,.26.16,1.64,1.64,0,0,1,.33.36,2.19,2.19,0,0,1,0,.24,2.07,2.07,0,0,0-.08.65,0.33,0.33,0,0,0,.24-0.21c0.35-.77.74-1.53,1-2.32l-0.19,0a1.94,1.94,0,0,1-.6.65,3.06,3.06,0,0,1-1.23-.39c-0.23-.17-0.54-0.22-0.75-0.39a0.94,0.94,0,0,1,.62-0.76c0.37,0,.73-0.07,1.09-0.09a4.16,4.16,0,0,0,1.76-.57A9.45,9.45,0,0,0,17,26.85a0.92,0.92,0,0,0,.13-0.33c0.21-.23.48-0.4,0.68-0.65a2.42,2.42,0,0,0,.37-0.93,1.8,1.8,0,0,0-.5-1.52m42.58-2.85c0,0.3.26,0.54,0.22,0.85a0.81,0.81,0,0,1-.23.4c-0.13.09-.25,0.18-0.36,0.27-0.68.51-1.4,1-2.09,1.47-0.23.19-.53,0.29-0.78,0.46l-0.32.11A2.5,2.5,0,0,1,56.35,24a0.74,0.74,0,0,0-.56-0.33c0.37,0.7.9,1.3,1.32,2s0.78,1.11,1.2,1.65c0.31-.17.67-0.2,1-0.4a4.72,4.72,0,0,1,.63-0.31c-0.16-.24-0.43,0-0.63,0a1.23,1.23,0,0,1-.71,0,2.18,2.18,0,0,1-1.1-1l-0.18-.45a1.3,1.3,0,0,1,.52-0.72,8.4,8.4,0,0,1,1.2-.74,2.4,2.4,0,0,1,.78,1.45c-0.07.18-.43,0.4-0.19,0.58,0.52-.37,1.06-0.72,1.57-1.1a0.3,0.3,0,0,0-.33,0,1.13,1.13,0,0,0-.26.12l-0.12-.13-0.08.06a4.88,4.88,0,0,1-1-1.22c0.36-.23.69-0.48,1-0.72a6,6,0,0,0,.77-0.56,4.08,4.08,0,0,1,1,1.59,1.26,1.26,0,0,1-.49.83l0.12,0.16c0.37-.24.75-0.46,1.14-0.68a6.5,6.5,0,0,1-.75-1c-0.51-.68-1-1.41-1.5-2.07a0.69,0.69,0,0,0-.39-0.36m-14,1a2.76,2.76,0,0,1-.37.15,1.79,1.79,0,0,1,.58,1.18A2.76,2.76,0,0,0,45.91,22a0.22,0.22,0,0,0-.24.21l-0.16.17H45.25l-0.2-.13a1.81,1.81,0,0,1,.06-0.36,0.66,0.66,0,0,0,.33-0.3,2.85,2.85,0,0,0-.54-0.29,0.34,0.34,0,0,1,.39-0.41c0.07,0.09.13,0.2,0.19,0.3a0.83,0.83,0,0,0,0,.34c0.14,0.14.17-.09,0.23-0.18a0.62,0.62,0,0,1,.54-0.3c0.12,0.12.23,0.38,0,.47m0.4,0.08c0-.11,0-0.21.06-0.31a0.74,0.74,0,0,0-.43-0.52,0.66,0.66,0,0,0-.65.16,0.59,0.59,0,0,0-1.11.12,0.74,0.74,0,0,0,.29.65,0.94,0.94,0,0,0-.15.42,0.64,0.64,0,0,0,.58.58,0.89,0.89,0,0,0,.62-0.28,3.1,3.1,0,0,1,.44,1.68h0.08a4,4,0,0,0,.37-1.1,1.87,1.87,0,0,0-.3-1.2l0.21-.2M30.11,21l-0.27-.12a0.81,0.81,0,0,0-.25.66l-0.13,0A0.85,0.85,0,0,0,28.82,21a2.59,2.59,0,0,0-.18.33,2.6,2.6,0,0,0,.15.28l0.12-.08L29,21.63l0.19-.07a2.25,2.25,0,0,0-.57,1.28c0.12-.18.2-0.37,0.3-0.56L29.24,22l0.13,0.05a0.44,0.44,0,0,0,.43.33,0.47,0.47,0,0,0,.29-0.32,2.11,2.11,0,0,0-.47-0.51,1,1,0,0,0,.5-0.26,0.31,0.31,0,0,0,0-.35m0.3,0.58-0.22.06c0.06,0.16.12,0.33,0.18,0.5a0.67,0.67,0,0,1-.44.57h-0.4a2.27,2.27,0,0,1-.35-0.27,2.83,2.83,0,0,0-.42,1.52l-0.08.23a5.9,5.9,0,0,1-.24-0.63l-0.09-.11c0-.19,0-0.39-0.07-0.58a1.78,1.78,0,0,1,.36-1,0.6,0.6,0,0,1-.05-1,2.62,2.62,0,0,1,.56-0.05l0.22,0.15a0.62,0.62,0,0,1,1.09,0,1,1,0,0,1,0,.6M16.58,18.38c0.3,0.06,0,.37-0.06.54a0.77,0.77,0,0,0,.29.88c0.42,0.36.82,0.73,1.23,1.1s1,0.94,1.54,1.34l0.29,0.13A1.71,1.71,0,0,0,20.69,22l0.11,0.14L19,24.06a1.59,1.59,0,0,0-.17-0.16l0.29-.44a2.5,2.5,0,0,1,0-.34,3.7,3.7,0,0,0-1-1.08,5,5,0,0,1-.66-0.56c-0.44-.37-0.85-0.78-1.28-1.16l-0.46-.27a2.76,2.76,0,0,0-.92.4s0-.13,0-0.18c0.52-.66,1.12-1.26,1.66-1.9m43,21.22h-13a2.34,2.34,0,0,0-.7,0l-0.13,0c-0.43,0-.87-0.05-1.3,0-4.84,0-9.68,0-14.52,0-0.78,0-1.55,0-2.33,0H27.44c-0.67,0-1.34,0-2,0-0.51,0-1,0-1.54,0-0.3.42-.56,0.85-0.88,1.26a2.92,2.92,0,0,0-.46.69H22.8a9.19,9.19,0,0,0,.91-0.55,1.83,1.83,0,0,1,.58,0,1.12,1.12,0,0,0,.7,0,6.64,6.64,0,0,0,1-.66,2,2,0,0,1-.46,1,3.36,3.36,0,0,1-1.37.54,5.75,5.75,0,0,1-.75.87c0.4,0.08.82,0.1,1.23,0.21L25,42.88a4,4,0,0,1,.68.13c0.28,0.06.56,0.09,0.83,0.15a3.13,3.13,0,0,1,.65.06,0.72,0.72,0,0,1-.27.1l-2.36.33c-0.52.09-1,.16-1.58,0.21l0.08,0.22,0.25,0.12a4.1,4.1,0,0,1,1.1.35c0.26,0.21.43,0.5,0.67,0.72a12.16,12.16,0,0,0,1.29.37,2.51,2.51,0,0,1-1.5.23A2.7,2.7,0,0,1,24,45.34c-0.4-.07-0.78.1-1.18,0.06,0.19,0.33.47,0.6,0.68,0.91,0.52,0.82,1.18,1.56,1.72,2.38a4.32,4.32,0,0,1-.37-0.25l-0.08-.11-0.65-.47c-0.64-.45-1.23-0.95-1.86-1.4a1.65,1.65,0,0,0-.58-0.36c0.06,0.14.12,0.28,0.18,0.42a1.91,1.91,0,0,1,.19.4l0.19,0.28a10.31,10.31,0,0,1-.11,1.3c0.26,0.41.48,0.85,0.71,1.27a2.64,2.64,0,0,1-.4-0.24,2.58,2.58,0,0,1-.9-0.81c-0.15-.35-0.18-0.74-0.31-1.1a3.08,3.08,0,0,1-.84-0.68c-0.12.88-.22,1.76-0.36,2.62a10.38,10.38,0,0,1-.19,1.31c-0.15-.71-0.25-1.44-0.35-2.17,0-.13,0-0.27-0.08-0.4-0.08-.61-0.18-1.23-0.29-1.84a3.78,3.78,0,0,0-.28.36,4.07,4.07,0,0,1-.3,1.1c-0.21.26-.5,0.45-0.73,0.69a3.07,3.07,0,0,1-.14.33,1.73,1.73,0,0,0,.2.51,22.41,22.41,0,0,0,8,8.76,2.1,2.1,0,0,0,.61.35,1.58,1.58,0,0,0-.3-0.62l-0.3-.2a10.11,10.11,0,0,1-1-.83,4.42,4.42,0,0,1-1.13-3.28,7.46,7.46,0,0,1,.13-1.76,5.85,5.85,0,0,1,.4.83,3.91,3.91,0,0,0,.45.71c0.5,0.65,1.21,1.07,1.75,1.67a8,8,0,0,1,.2-1.87,9.69,9.69,0,0,1,.5,1.12,6.2,6.2,0,0,0,.43.67l0.07,0a9.08,9.08,0,0,0,0-2.1c-0.09-.61-0.34-1.18-0.44-1.79a10,10,0,0,1,2,1.5,2.61,2.61,0,0,1,.62,1c0.19,0.13.43,0.18,0.62,0.33a4.36,4.36,0,0,1,.53.49,5.72,5.72,0,0,1,.19-0.7,3.51,3.51,0,0,0,0-1.45,5.89,5.89,0,0,1,.82.58,2.6,2.6,0,0,1,.78,1.65,5.36,5.36,0,0,0,.49,2.27A2.65,2.65,0,0,0,33.41,56a6.11,6.11,0,0,0-.28-1.63,5.58,5.58,0,0,1,1.17,1.1,3.58,3.58,0,0,1,.47,1.94l0,0.08A0.88,0.88,0,0,0,35,58c0.11-.49.17-1,0.28-1.49A2.64,2.64,0,0,0,35,55.6c-0.09-.43-0.2-0.85-0.26-1.27l-0.16.18a11.94,11.94,0,0,0-.17-1.28A7.73,7.73,0,0,0,34,52c-0.19-.54-0.57-1-0.76-1.53a5.73,5.73,0,0,0-.1-0.64,5.59,5.59,0,0,0,0-1.15L33,48.78a7.1,7.1,0,0,0-.08-1.23,4.23,4.23,0,0,1-.6.63,1.26,1.26,0,0,1,0-.39l0.09-.51c0.08-.33,0-0.67.06-1-0.08-.57-0.07-1.16-0.2-1.72A0.59,0.59,0,0,0,32,44.28a3.34,3.34,0,0,1-.4-0.18L31,43.9a3.89,3.89,0,0,0-.61-0.18A0.91,0.91,0,0,1,31,43.21a2,2,0,0,1,.68,0,1.51,1.51,0,0,0-.88-0.53,3.08,3.08,0,0,0-.37,0,3.25,3.25,0,0,1-.54.33,5.11,5.11,0,0,0,0-.59,0.73,0.73,0,0,1,.42-0.67,2.51,2.51,0,0,1,1.95.16,1.56,1.56,0,0,0,.64-0.12,2.57,2.57,0,0,1,1.55.65,2.09,2.09,0,0,0,.36.22c0.4,0.26.78,0.57,1.17,0.83a4.29,4.29,0,0,0-.46-1.31,2.21,2.21,0,0,1,.77-2,2.27,2.27,0,0,1,1-.3c1.11,0.12,2.22.23,3.33,0.36,0.37,0,.72.09,1.1,0.07,0.34,0.13.71,0,1,.13a1.1,1.1,0,0,0,.39,0c0.58,0.07,1.16-.06,1.75,0a5.58,5.58,0,0,0,.89-0.11c0.29,0.06.55-.09,0.84,0,0.31-.13.65,0,1-0.16,0.5,0,1-.22,1.49-0.22a1.71,1.71,0,0,1,1-.14,0.66,0.66,0,0,1,.11.73,2.15,2.15,0,0,1-.53.38,2.89,2.89,0,0,1-.94.52,1.57,1.57,0,0,0-.48.33c1-.07,1.93-0.17,2.89-0.32a18.63,18.63,0,0,0,2.26-.49,7.74,7.74,0,0,0,2.17-.85,0.92,0.92,0,0,1,.82-0.19,0.6,0.6,0,0,1,0,.74,6.74,6.74,0,0,1-3,2.1l-0.47.16a8.35,8.35,0,0,1-1.64.39L51,43.34a0.42,0.42,0,0,0-.51.14A1.53,1.53,0,0,0,51,43.42l0.26,0a25.39,25.39,0,0,0,3-.36,1.29,1.29,0,0,1,.57,0,0.54,0.54,0,0,1,.34.43,1.26,1.26,0,0,1-.58.74,6.88,6.88,0,0,1-3.38,1c-0.48,0-1,.09-1.44.05v0.1c0.27,0,.54,0,0.82,0l0.09,0a0.59,0.59,0,0,1,.33,0,11.63,11.63,0,0,0,1.56,0,0.55,0.55,0,0,1,.3.36c0,0.06-.06.16-0.08,0.22a2.59,2.59,0,0,1-1,.61,6.35,6.35,0,0,1-1.5.47,6.26,6.26,0,0,1-1.74.07c-0.33,0-.67,0-1,0v0.09a0.5,0.5,0,0,1,.39.27,0.62,0.62,0,0,1-.3.63,1.78,1.78,0,0,1-.89.54l-0.3.09a0.76,0.76,0,0,1,.13.54,1.47,1.47,0,0,1-1.19.46c0.12,0.13.23,0.25,0.33,0.38a1.39,1.39,0,0,1-1.14.9,2.23,2.23,0,0,1-.4.05,0.7,0.7,0,0,1,0,.58,4.31,4.31,0,0,1-.4.23,0.68,0.68,0,0,0-.44.06,1.1,1.1,0,0,0-.49-0.1,2,2,0,0,0-.51-0.12c0.16,0.26.42,0.43,0.57,0.68l-0.22.06-0.18.06a2.87,2.87,0,0,1-1.3-.23,2.92,2.92,0,0,0,.54.73l-0.3.19-0.47.1a2.33,2.33,0,0,0-.77,0,3.33,3.33,0,0,0,.71.86,5.74,5.74,0,0,0,1,.89c0.33-.39.69-0.75,1-1.16a4.2,4.2,0,0,0,.5-1.53,7,7,0,0,1,.44,1.45,2.1,2.1,0,0,1-.13,1c0.23-.19.37-0.47,0.59-0.67a8.07,8.07,0,0,1,1.31-1.16c0.26-.32.57-0.59,0.82-0.92a7.79,7.79,0,0,1-.42,2.62,5.25,5.25,0,0,1-.72,1.07c0,0.31,0,.62,0,0.93,0.3-.23.54-0.54,0.83-0.79a7,7,0,0,1,1.42-1c0.48-.3,1-0.47,1.54-0.72l0.49-.18a14,14,0,0,0-1,1.25c-0.16.34-.35,0.68-0.5,1a2.21,2.21,0,0,0,.84-0.34,4.55,4.55,0,0,0,1.22-.94,7.45,7.45,0,0,1,0,.92,2.76,2.76,0,0,1-.73,2c-0.3.21-.59,0.44-0.9,0.63l-0.6.36a1.13,1.13,0,0,0-.17.45,14.8,14.8,0,0,0,1.86-1.07,3.78,3.78,0,0,0,.72-0.47c0.14-.1.29-0.19,0.43-0.3a16.77,16.77,0,0,0,2.14-1.77,7.84,7.84,0,0,0,1-1,6.88,6.88,0,0,0,.6-0.65,2.09,2.09,0,0,1,.36-0.39c0.22-.38.57-0.67,0.78-1a16.14,16.14,0,0,0,1.51-2.35,22.06,22.06,0,0,0,1.45-3.06c0.18-.68.45-1.34,0.62-2,0.06-.27.12-0.55,0.18-0.83a23.61,23.61,0,0,0,.51-3.47,8.46,8.46,0,0,1,.06-1.26,2.24,2.24,0,0,0-.33,0m0.27-.78c0-.26,0-0.54,0-0.8-0.14-.47,0-1-0.19-1.44a6.73,6.73,0,0,0-.1-0.7c-0.06-.37-0.13-0.74-0.21-1.1s-0.12-.55-0.18-0.82c-0.19-.68-0.4-1.36-0.62-2a25.9,25.9,0,0,0-1.17-2.59,19,19,0,0,0-1.86-3,24.31,24.31,0,0,0-2.34-2.72c-0.37-.24-0.64-0.61-1-0.88a21.83,21.83,0,0,0-3.37-2.44l0.12,0.4a3.15,3.15,0,0,1-.23.61l0.18,0.1c0.15-.19.28-0.4,0.43-0.59A1.16,1.16,0,0,1,49,22.17l0.1,0.19c0.13-.14.25-0.29,0.37-0.43a1.56,1.56,0,0,1,.22.58c0,0.3-.36.47-0.37,0.78a4.93,4.93,0,0,0,.51-0.39c0,0.16,0,.33,0,0.49a5.06,5.06,0,0,0-.06,1.18,3.77,3.77,0,0,1-.44.36c0,0.06,0,.13,0,0.2,0.17-.09.34-0.19,0.5-0.29a3.48,3.48,0,0,1,0,.64,7.54,7.54,0,0,1-.47.67A2.83,2.83,0,0,0,50,25.91v0.51l-0.18.27a0.85,0.85,0,0,0-.43.3l0.15,0.17L50,26.85a1.12,1.12,0,0,1-.11.73,1.29,1.29,0,0,0-.57.44l0.13,0.2A1,1,0,0,0,50.09,28a2.27,2.27,0,0,1-.07.65c-0.1.23-.46,0.51-0.19,0.75a1.82,1.82,0,0,0,.33-0.71l0.29,0.4v0.6a4.56,4.56,0,0,1,.47-0.31,1.41,1.41,0,0,1-.14.82,4.69,4.69,0,0,1-.39.26l0.28,0.2a2,2,0,0,1-.22.29c-0.14,0-.29,0-0.44,0l-0.39-.13a0.69,0.69,0,0,0,.23.49,0.91,0.91,0,0,0-.5.08l-0.26-.12C49,31.16,48.86,31,48.75,30.88a1.87,1.87,0,0,0-.06.63,1.24,1.24,0,0,1-.6-0.58,2.6,2.6,0,0,0-.22-0.57,2.84,2.84,0,0,0-.52-0.13c0,0.15,0,.31.06,0.47a0.8,0.8,0,0,1,.13.69,0.54,0.54,0,0,0-.15.45,1.46,1.46,0,0,0,.45-0.57,0.93,0.93,0,0,1,.33.36,1.49,1.49,0,0,1,.58.12l0.13,0.33c0,0.06,0,.19,0,0.25a4.27,4.27,0,0,0,.46-0.71,2.58,2.58,0,0,0,.12.69,1.43,1.43,0,0,1-.43.67,0.82,0.82,0,0,0,.59-0.08,0.73,0.73,0,0,1-.38.68,2.2,2.2,0,0,0-.49.09,2.69,2.69,0,0,0,.49.2,2.51,2.51,0,0,1-.49.23,2.29,2.29,0,0,1-.73-0.05v0.17a0.33,0.33,0,0,1,.17.29,1,1,0,0,1-.5.17,0.87,0.87,0,0,1-.55-0.31,2.35,2.35,0,0,0,.15.42,0.38,0.38,0,0,0-.11.43c-0.1.25-.39,0.33-0.5,0.57,0.24,0,.48,0,0.72,0a2.23,2.23,0,0,1-.45.36c-0.27.15-.6-0.12-0.87,0l0.09,0.22a3.6,3.6,0,0,1,.58.11l-0.49.29a1.88,1.88,0,0,1-.75-0.1l-0.09.08a1.32,1.32,0,0,0,.39.67,1.53,1.53,0,0,1-.53-0.08,1.11,1.11,0,0,1-.72-0.59,1.53,1.53,0,0,0-.09.8c-0.19-.06-0.38-0.11-0.55-0.19a0.59,0.59,0,0,1-.12-0.64l-0.07-.25a3.76,3.76,0,0,0-.61.87,1.66,1.66,0,0,1,0-1.34H42.95a0.75,0.75,0,0,1-.32.41l-0.22-.3a2.36,2.36,0,0,1-.62-0.07,1.17,1.17,0,0,1-.38-0.53l-0.19.13a1.65,1.65,0,0,0,.48.47c0,0.06-.06.18-0.08,0.24a2.41,2.41,0,0,1-1.21-.12,0.59,0.59,0,0,0,.37.24,1.33,1.33,0,0,1,.62.13,3.32,3.32,0,0,1-.53.2,0.67,0.67,0,0,0,0,.21,0.54,0.54,0,0,0,.4.15,1.92,1.92,0,0,1,.52,0,0.9,0.9,0,0,1-.4.51,0.6,0.6,0,0,1-.51,0l-0.19.15c0.06,0.12.11,0.22,0.17,0.33a2.92,2.92,0,0,1,.4.35,2.11,2.11,0,0,0-.58.06L40.3,38.5a0.68,0.68,0,0,0-.43-0.43,1.79,1.79,0,0,0,.14.46,3.47,3.47,0,0,1,.53.28,2.33,2.33,0,0,1-1,.12,2,2,0,0,1-.37-0.3,1.92,1.92,0,0,0-.08.6c1,0.05,2,0,3,0,2.07,0,4.15,0,6.22,0a9.61,9.61,0,0,1,1.23,0c0.34,0,.68-0.05,1,0h9.08c0.25,0,.15-0.31.12-0.47M49.66,30.47l0,0.09L50,30.71l0.08-.06c0-.05,0-0.16-0.05-0.21l-0.11-.09-0.25.13m-1.2-9a0.68,0.68,0,0,1,0-.61,0.66,0.66,0,0,1-.59-0.23,1.35,1.35,0,0,1,0-.61,1.9,1.9,0,0,1-.47.05A1.06,1.06,0,0,1,47,19.34a0.84,0.84,0,0,1-.66.18,1.35,1.35,0,0,1-.46-0.45,1,1,0,0,1-.35.35l-0.26,0A4.6,4.6,0,0,1,44.73,19a0.45,0.45,0,0,1-.44.53l-0.22-.12a2.05,2.05,0,0,0-.45-0.31,1.23,1.23,0,0,1,.05.85,1.3,1.3,0,0,1-.77,0,1.3,1.3,0,0,1,0,.69,1.27,1.27,0,0,1-.63.13c0.12,0.11.25,0.22,0.36,0.34a2.37,2.37,0,0,1,0,.41l-0.43.36a1.28,1.28,0,0,1,.5.41c0-.08,0-0.23,0-0.3a2.79,2.79,0,0,1,.24-1.1,2.41,2.41,0,0,1,1.06-1,3.29,3.29,0,0,1,2.8.1,3.57,3.57,0,0,1,.71.51,5.89,5.89,0,0,1,.64.75,4.26,4.26,0,0,1,.53,1.57c0.18,0.78.15,1.59,0.25,2.38a24.24,24.24,0,0,1-.06,2.48A9.2,9.2,0,0,0,49,29.29a1.13,1.13,0,0,0,.75.78,1.27,1.27,0,0,0,.66,0l-0.3-.26v-0.3a0.61,0.61,0,0,1-.71-0.11,1.14,1.14,0,0,1,.3-1l-0.45,0A1,1,0,0,1,49,28.05c0.05-.13.11-0.26,0.17-0.4l0.29-.18-0.36-.27a1.69,1.69,0,0,1,.06-0.48,4.51,4.51,0,0,0,.41-0.28l-0.39-.13L49.1,26c0-.28.4-0.33,0.46-0.61a1,1,0,0,1-.44-0.2L49.05,25a1,1,0,0,1,.4-0.47,1.62,1.62,0,0,1-.37-0.32,1.05,1.05,0,0,1,.48-0.61l-0.41-.09A1.11,1.11,0,0,1,49,23.2a1.45,1.45,0,0,1,.37-0.59,0.67,0.67,0,0,1-.49-0.1l-0.12-.19V22l0.12-.15L49,21.7c-0.21,0-.52.05-0.58-0.22M48.29,20a0.76,0.76,0,0,0-.1.56l0.24,0c0-.09.07-0.19,0.09-0.28A0.46,0.46,0,0,0,48.29,20m-0.81-.36c-0.08.11,0.11,0.24,0.19,0.15a0.12,0.12,0,0,0-.19-0.15M46.24,19a0.2,0.2,0,0,0,.19.23c0.16-.09-0.09-0.29-0.19-0.23m-1.46-.57a1,1,0,0,0,.74.66,3.49,3.49,0,0,0,0-.41,2.23,2.23,0,0,0-.74-0.25M43,23c0-.1-0.06-0.21-0.1-0.31a1,1,0,0,0-.19.3H43m0.71-5A21.48,21.48,0,0,0,40,17.32a24.68,24.68,0,0,0-3.8-.12,21.45,21.45,0,0,0-5.8,1.13l0.47,0.11,0,0.07a4.82,4.82,0,0,0-.43.35c0,0.11,0,.22,0,0.32a6.71,6.71,0,0,1,.74-0.42,1.33,1.33,0,0,1,.52.33,0.55,0.55,0,0,0-.29.55l0.15,0.08a1.61,1.61,0,0,1,.77-0.09A3.11,3.11,0,0,1,33,20H32.36a0.85,0.85,0,0,0-.08.36,3.74,3.74,0,0,1,.83.22c0-.17-0.05-0.34-0.07-0.51a5.84,5.84,0,0,1,.64.29c0.27-.18-0.14-0.33-0.26-0.47a2.52,2.52,0,0,1-.12-0.54l0.55,0.21a5.43,5.43,0,0,0-.19-0.8,0.76,0.76,0,0,1,.73.28,1.64,1.64,0,0,1,.33-0.89,2.44,2.44,0,0,0,.32.87,6.39,6.39,0,0,1,.09-0.65,0.93,0.93,0,0,1,.51.6h0.07A1.07,1.07,0,0,1,36,18.42c0,0.13.08,0.26,0.11,0.4a8.11,8.11,0,0,1,.5.75,2.79,2.79,0,0,0-.13-0.66l0.31,0,0.38,0.16a1.3,1.3,0,0,0,.23.52c0-.06.07-0.13,0.11-0.2A4.87,4.87,0,0,1,37.23,19a0.89,0.89,0,0,1,.78.27c0.08,0.2.09,0.43,0.15,0.63a0.81,0.81,0,0,0,.06-0.71,3.3,3.3,0,0,1,.5.23,1.48,1.48,0,0,1,0,.92l0.11,0,0-.26a0.51,0.51,0,0,1,0-.41,1,1,0,0,1,.46.54,1.62,1.62,0,0,0,0,.55c0.05,0.15.27,0.1,0.33,0s0.1-.27.17-0.4a1.19,1.19,0,0,1,.33.5,1.54,1.54,0,0,1-.35.74h0.27A2.29,2.29,0,0,0,40.39,21a1.07,1.07,0,0,1,.19.84,1.47,1.47,0,0,1,.19.66,3,3,0,0,1-.33.44,1,1,0,0,0,.79.27,1.19,1.19,0,0,1-.66.58,2.59,2.59,0,0,1,.33.17,1.38,1.38,0,0,1,.12.89L41.17,25l0.25-.16,0.3,0a0.84,0.84,0,0,1,.33.57l0.15-.17c-0.1-.15-0.22-0.3-0.32-0.46L42,24.88a0.59,0.59,0,0,1,.61.09l0.13-.27a3.43,3.43,0,0,0,.48-0.12A1.1,1.1,0,0,1,42.91,24a1.25,1.25,0,0,1,.09-0.6l-0.21-.16a1.28,1.28,0,0,0-.2.51c-0.12.09-.22,0-0.29-0.13a1.16,1.16,0,0,1-.15-0.5,1.51,1.51,0,0,1,.38-0.51,4.58,4.58,0,0,0-.38-0.49,3.36,3.36,0,0,0-.38.54,1.32,1.32,0,0,1-.07-0.89,0.72,0.72,0,0,1,.54-0.29,0.46,0.46,0,0,0,0-.38l-0.16-.06-0.44.09c0-.15.06-0.3,0.09-0.46a1.33,1.33,0,0,1,.87-0.29c0-.07,0-0.2,0-0.26a1.14,1.14,0,0,0-.77-0.06,1.91,1.91,0,0,1,.67-0.47,1.65,1.65,0,0,1,.73.1l0.16-.09a0.48,0.48,0,0,0-.37-0.48,1.39,1.39,0,0,1,.54-0.37,5.21,5.21,0,0,1,.79.43c0-.07,0-0.2,0-0.26A1.82,1.82,0,0,0,44,18.49c0.16,0,.32-0.06.48-0.1a2.07,2.07,0,0,0-.83-0.34m-13.49.86a3.58,3.58,0,0,1-.32.37,0.83,0.83,0,0,1-.57.08A1.44,1.44,0,0,1,29,18.93a1.79,1.79,0,0,1-.27.47,0.91,0.91,0,0,1-.85-0.09,1.14,1.14,0,0,1-.32.61,0.78,0.78,0,0,1-.56.12,0.76,0.76,0,0,1,0,.64l-0.2.13H26.47a1.85,1.85,0,0,1,.08.58,0.54,0.54,0,0,1-.55.25,1.73,1.73,0,0,1,.24.46,0.57,0.57,0,0,1-.56.5c0.08,0.11.16,0.22,0.24,0.32s0,0.28,0,.43a1,1,0,0,1-.48.16l0.13,0.17a0.49,0.49,0,0,1,.29.59l-0.33.17a1.25,1.25,0,0,1,.39.4c0,0.1,0,.21,0,0.31a1.34,1.34,0,0,1-.5.22,2.34,2.34,0,0,1,.5.61c0,0.1-.06.19-0.09,0.3l-0.37.12a1.21,1.21,0,0,1,.45.48,0.62,0.62,0,0,1-.08.38l-0.26.12A0.87,0.87,0,0,1,26,28a0.57,0.57,0,0,1-.23.41H25.31a2,2,0,0,0,.27.47c0,0.1.06,0.19,0.1,0.29a0.79,0.79,0,0,1-.34.35,0.69,0.69,0,0,1-.41,0c0,0.06,0,.19,0,0.26L24.57,30a2.41,2.41,0,0,0,.47.06,1.9,1.9,0,0,0,.41-0.12,1.58,1.58,0,0,0,.63-1.09,11.36,11.36,0,0,0,.08-2.18c-0.13-.72.09-1.45,0-2.17a1.63,1.63,0,0,0,0-.19,1.15,1.15,0,0,0,0-.51A8.13,8.13,0,0,1,26.49,22a3,3,0,0,1,.64-1.16,3.27,3.27,0,0,1,3.7-1A2.18,2.18,0,0,1,32,21a2.91,2.91,0,0,1,.21,1.34A1.11,1.11,0,0,0,32.41,22l0.33-.2a1.69,1.69,0,0,0-.36-0.18,2.18,2.18,0,0,1-.1-0.44,2.77,2.77,0,0,1,.2-0.33l0.18-.12A2.73,2.73,0,0,1,32,20.55c0-.23,0-0.44,0-0.67a0.88,0.88,0,0,1-.78,0,3.57,3.57,0,0,0,0-.4c0-.12,0-0.23.06-0.34-0.18.09-.33,0.21-0.5,0.29a4.34,4.34,0,0,1-.46,0c0-.16-0.09-0.33-0.12-0.49m-0.4-.34a4.22,4.22,0,0,0-.4.17c0,0.13,0,.26,0,0.38a1.51,1.51,0,0,0,.71-0.71l-0.36.16m-2.46,1.08c0,0.11,0,.14.12,0.09s0-.14-0.12-0.09m-0.6.33-0.24.15c0,0.16,0,.44.24,0.43a0.59,0.59,0,0,0,0-.58M25.44,30.44A2.09,2.09,0,0,0,25,30.27a2.11,2.11,0,0,0,0,.33l0.26,0,0.2-.12m2.79,3.8a1.67,1.67,0,0,0,.3-0.33L28,34l0.2,0.27m0.31,0.85c0-.12.09-0.24,0.13-0.36l0.05-.17a0.61,0.61,0,0,0,.15-0.24c-0.09-.18-0.3-0.07-0.38.06a3.15,3.15,0,0,1-.46.46,0.81,0.81,0,0,0,.5.26m0.67-.21L29.44,35a4.23,4.23,0,0,0-.16-0.6c0,0.16-.05.3-0.07,0.46m0.1-.55c0.07-.18.14-0.36,0.2-0.53a0.52,0.52,0,0,0-.47.52h0.27m-0.19,1.56c0,0.2.06,0.4,0.09,0.61a3.13,3.13,0,0,1,.46-0.07,0.81,0.81,0,0,1,.24.55,1.84,1.84,0,0,1,.45-0.53,2.34,2.34,0,0,1-1.24-.56m1.26-4,0.28,0a4.79,4.79,0,0,1,0,.94,0.33,0.33,0,0,0,.1.27,6.68,6.68,0,0,0-.29-2.66A6.37,6.37,0,0,1,30,32.65a2.22,2.22,0,0,0,.4-0.71m-0.15,1.68a0.61,0.61,0,0,0,0-.76L30,33.23l0.25,0.38m-0.45.12a0.35,0.35,0,0,0,.14.6L30,34.2a1.54,1.54,0,0,1-.25-0.47m0.68,2.41a2.92,2.92,0,0,0,1.67-2.31,1.12,1.12,0,0,0-1.13.1l-0.12-.17a2.68,2.68,0,0,1-.82,1.75,1.76,1.76,0,0,1-.59.26,1.63,1.63,0,0,0,.26.25,1.42,1.42,0,0,0,.71.12m3.62-.48a1.9,1.9,0,0,1-.21.54,2,2,0,0,1,.77-0.12,2.68,2.68,0,0,1-.56-0.42m0.67-3.08a2.64,2.64,0,0,0,.49-0.2A4.28,4.28,0,0,0,35,32a1.56,1.56,0,0,0-.25.61m-1.53,1.65,0.28,0.24a3.87,3.87,0,0,0,.12-0.6,3.58,3.58,0,0,0-.4.36M34,32.62a4,4,0,0,1-.68-0.06l0.09,0.28c-0.06.11-.12,0.22-0.2,0.32l0.33,0.09a1.39,1.39,0,0,1,.12.43,3.55,3.55,0,0,1,.54-0.59,1.7,1.7,0,0,1,.66,0A0.37,0.37,0,0,0,35.18,33c0-.08,0-0.23,0-0.31l-0.36.16-0.35,0a0.53,0.53,0,0,1-.06-0.34c0.1-.4.37-0.74,0.46-1.16-0.33-.11-0.31.35-0.45,0.54a1.47,1.47,0,0,1-.4.69m-0.94.28a0.6,0.6,0,0,0-.28-0.34l-0.16,0v0.18c0.15,0.05.29,0.11,0.44,0.15m-0.29.21L32.48,33a0.62,0.62,0,0,0-.46.13c0,0.13.1,0.26,0.15,0.4a1.47,1.47,0,0,0,.64-0.26,0.92,0.92,0,0,0,0-.15m0-1.29c-0.07.09-.13,0.2-0.19,0.29a5.45,5.45,0,0,0,.65.39,3.35,3.35,0,0,0-.46-0.68m0-.4,0.33,0.22a4.6,4.6,0,0,0-.17-1.41c0-.12-0.08-0.26-0.13-0.39a0.59,0.59,0,0,0-.05.41,6,6,0,0,1,0,1.17m1.47-.66a3.08,3.08,0,0,1,.33-0.38l-0.21,0,0.14,0.08a1.7,1.7,0,0,0-.53.52c0-.08,0-0.23,0-0.31a8.38,8.38,0,0,1-.77,1.13,0.94,0.94,0,0,0,.72.61,5.31,5.31,0,0,0,.4-0.87L34,31.41a1.4,1.4,0,0,0-.4,0,3.83,3.83,0,0,1,.57-0.62m1.23,3.39c0-.09,0-0.19,0-0.3H35.2L35.11,34l0.1,0.19,0.23,0m1-.71a3.25,3.25,0,0,1-.64.92,0.33,0.33,0,0,0-.41.08,0.71,0.71,0,0,1-.4-0.08l-0.16.06c0.17,0.09.33,0.22,0.5,0.29A0.91,0.91,0,0,0,36,34.61a1.33,1.33,0,0,0,.57-1.16l-0.07,0M35.8,34a0.14,0.14,0,0,0,0-.26,0.14,0.14,0,0,0,0,.26m0.27-2.41a1.92,1.92,0,0,1,.4-0.29V31.06a4.5,4.5,0,0,0-.29-0.54,1.51,1.51,0,0,0-.1,1c-0.15-.05-0.29-0.13-0.43-0.2a2.2,2.2,0,0,0,0,1.4l0.26,0.16c0.06,0.19.12,0.39,0.19,0.58l0.46-.09,0,0a1.66,1.66,0,0,1-.7-1.11,2.14,2.14,0,0,1,.17-0.61M34.8,34.36l0.07-.16a0.46,0.46,0,0,1,.33-0.66l0.19,0c0.14,0,.08-0.21.11-0.32a1.1,1.1,0,0,1-.85.05l-0.19,0a1.09,1.09,0,0,0-.58.95,3.18,3.18,0,0,1,.27-0.43c0.16-.13.35-0.22,0.52-0.34a1.36,1.36,0,0,0,.12.88m0.78,3.22c0.07-.09.12-0.19,0.18-0.29a3.11,3.11,0,0,1,.17-0.89,1.26,1.26,0,0,0-.69,1,0.26,0.26,0,0,0,.34.18m-0.19,1,0.36-.22,0.21,0a3.88,3.88,0,0,1-.16-0.65l-0.11.12H35.39l0.11,0.29c0,0.14-.08.28-0.12,0.42m-1.1-1.16a0.51,0.51,0,0,1,.39.58,0.46,0.46,0,0,1,.43-0.24A0.83,0.83,0,0,1,35,37.05,6.6,6.6,0,0,1,35.83,36a1,1,0,0,1-.93.12,3.14,3.14,0,0,1,0,.37,1,1,0,0,1-.42.33c0,0.13,0,.26,0,0.4l-0.23.24m-1.76-1.95a1.13,1.13,0,0,0,.17.43l0.12-.17-0.3-.26M31,36.29a1,1,0,0,1,.66.12,0.52,0.52,0,0,1,.15-0.64h0.37l0.18,0.12c-0.06-.23-0.16-0.44-0.19-0.67a1.13,1.13,0,0,1,.16-0.37l0.26-.09a0.5,0.5,0,0,1,.27.51,1.09,1.09,0,0,1,.33.5c0.12-.16.22-0.33,0.34-0.47l0.41,0c0-.26,0-0.54,0-0.8a0.67,0.67,0,0,1-.43.32,4.28,4.28,0,0,0-.26.75,1.24,1.24,0,0,1-.33-1.12,1,1,0,0,1,.48-0.71,2.19,2.19,0,0,0,0-.22l-0.16-.15a2.86,2.86,0,0,1-.69.38,4.3,4.3,0,0,1-.54,1.56,3.92,3.92,0,0,1-.9.92,4.91,4.91,0,0,0-.61.24l0.32,0.19c0.06,0.16.1,0.33,0.15,0.5a0.86,0.86,0,0,0,0-.54c0-.11,0-0.22.07-0.33m-1.27-.88a2.46,2.46,0,0,0,.93-1.72l-0.43.19,0.16,0.34a2,2,0,0,1-.26.37l-0.4-.06a1.76,1.76,0,0,0,.06.4,0.41,0.41,0,0,1-.46.36,1,1,0,0,1-.35-0.36,0.66,0.66,0,0,1-.43.44l0.09,0.18c0,0.09,0,.18,0,0.26a0.78,0.78,0,0,0,.43.06,4.26,4.26,0,0,0-.42-0.49,1.47,1.47,0,0,0,1.06,0m-2.38-1.57c0,0.16,0,.33,0,0.49A2.27,2.27,0,0,0,27.77,34a4.27,4.27,0,0,0-.46-0.14M28,30.16a1,1,0,0,0-.11-0.59L28,29.4H27.85a2.2,2.2,0,0,0-.15.54L28,30.16m-0.92,2.35H26.7c-0.08-.11-0.16-0.22-0.23-0.33a0.45,0.45,0,0,1-.43.35l0.19,0.21V33l-0.15.19a4.57,4.57,0,0,1,.45.13,0.6,0.6,0,0,1,.07.37l0.09,0.08,0.26-.13A2.86,2.86,0,0,1,26.36,33l0.19-.2a0.65,0.65,0,0,0,.71.13,2.29,2.29,0,0,0,1.1-1.9,13.38,13.38,0,0,0,0-1.68A6.74,6.74,0,0,0,28,27.4a7.52,7.52,0,0,1-.18,1.17h0.31a7.35,7.35,0,0,1,.11.83,2.35,2.35,0,0,1,0,1l-0.29.1a1.59,1.59,0,0,1,.32.68,3.79,3.79,0,0,1-.41.15L28,31.63a0.68,0.68,0,0,1-.21.35,0.69,0.69,0,0,1-.47-0.09v0.44l-0.25.17M27.15,30l0.27-.06V29.6a2.75,2.75,0,0,0-.27.4m-0.79.47,0.28,0.34c0-.16.09-0.3,0.12-0.46a0.49,0.49,0,0,0-.4.12m-0.61,0,0.09,0.4a2.49,2.49,0,0,0,.19-0.4H25.75m14.94-4.82H40.42a0.7,0.7,0,0,1-.23-0.45,1.87,1.87,0,0,1-.37-0.64l0.21,0a0.82,0.82,0,0,0-.43-0.23A6.88,6.88,0,0,1,40,25.66a4.61,4.61,0,0,0,.5.22,2.21,2.21,0,0,0,.64-0.07L41,25.66c0-.06,0-0.19,0-0.25s-0.19.17-.27,0.27m0.06-1-0.26.1c0,0.21,0,.42.05,0.63a0.44,0.44,0,0,0,.07-0.53l0.23-.1-0.09-.09m-0.33-2.42c0-.06,0-0.19,0-0.26-0.12.11-.23,0.23-0.33,0.34a0.34,0.34,0,0,0,.31-0.09m-3.5.3c0.08-.09.14-0.18,0.21-0.26L37,22.1c-0.06.16-.26,0.3-0.11,0.47m-2.33-2.18a1.31,1.31,0,0,1,.81.23,11.37,11.37,0,0,0,1.06.67,3.48,3.48,0,0,1,.46.43c-0.14-.4-0.35-0.78-0.5-1.17a3.13,3.13,0,0,0-1.24-.67,0.62,0.62,0,0,0-.59.5m0.36-.68,0.16-.12-0.42-.46a3,3,0,0,0,.26.58m-0.24,0-0.09-.1-0.47-.25c0.15,0.15.32,0.51,0.57,0.35m0.08,4.41A0.14,0.14,0,0,0,35,23.93c-0.1-.05-0.32.05-0.21,0.18M35.38,21a2.07,2.07,0,0,0-.61-0.32l-0.38.31a1,1,0,0,0,1,0m1.2,0.91a1.22,1.22,0,0,0-.85-0.58l0,0.09a3,3,0,0,1,.89.49m-1.91-.36a2,2,0,0,1-.59-0.41c-0.06.12-.12,0.26-0.19,0.38,0.21,0,.43.07,0.65,0.11l0.19,0.19a2,2,0,0,1-.08.48,1.69,1.69,0,0,1,.81,0,1,1,0,0,1,.15.58,1.22,1.22,0,0,1-.71.38,0.74,0.74,0,0,0,.29.23c0,0.13,0,.26,0,0.4a2.15,2.15,0,0,0,.89-1.52,3.38,3.38,0,0,0-1.4-.78M35.74,24a1.3,1.3,0,0,0-.6.05l0.19,0.06a7.65,7.65,0,0,1-.5.92,0.61,0.61,0,0,1-.49.68A0.91,0.91,0,0,1,34,25.28v0.36l-0.15.16A1.23,1.23,0,0,0,35,25.65L35.32,25l-0.42.13a4.12,4.12,0,0,1,.85-1.2m-4.18.26s0-.11,0-0.15l-0.19-.19L31.09,24a0.58,0.58,0,0,0,.47.22m-0.1.39c-0.09,0-.23.09-0.16,0.19s0.33-.14.16-0.19m2.28,0.83c0-.12-0.05-0.25-0.08-0.37l-0.16.19,0.1,0.19,0.14,0m-0.48.05a0.49,0.49,0,0,1-.46.23l-0.17-.09c0-.08-0.08-0.16-0.12-0.24a0.57,0.57,0,0,1-.61.14A2.07,2.07,0,0,1,31.68,25l-0.23.15-0.33,0a2.08,2.08,0,0,0,.25.47,1,1,0,0,1,.91.31,1.92,1.92,0,0,1,.78,0,0.56,0.56,0,0,0,.36.08,1.94,1.94,0,0,1,.37-0.12s0-.06,0-0.08a0.46,0.46,0,0,1-.5-0.27m-2.43-1.63a1.2,1.2,0,0,1,.51-0.28,3.64,3.64,0,0,1,.39.16c0-.16-0.05-0.31-0.08-0.46a1.61,1.61,0,0,1-1.16.23,8.21,8.21,0,0,1,.25,1.31L31,25a0.92,0.92,0,0,1,.12-0.59,1.33,1.33,0,0,1-.3-0.33c0-.06,0-0.19,0-0.24M32.31,23a1.3,1.3,0,0,0-.18-0.34C32.07,22.8,32,22.9,32,23l0.36,0m1.2-1.69A1.33,1.33,0,0,0,33.76,21l-0.54-.14,0,0.31a0.78,0.78,0,0,0-.47-0.11,0.42,0.42,0,0,0-.18.35,5.07,5.07,0,0,1,.5.28,1,1,0,0,1,.15,1c-0.14-.17-0.29-0.33-0.44-0.5l-0.13.09a2.17,2.17,0,0,0-.22.33,2.12,2.12,0,0,0,.31.46v0.43c-0.08.15-.19,0.29-0.29,0.43a3.14,3.14,0,0,1-.19-0.54l-0.12-.08-0.19.1a1.12,1.12,0,0,1,0,.79,1.05,1.05,0,0,0-.33.41h0.38a1.21,1.21,0,0,1,.25.4,0.38,0.38,0,0,0-.34.15l0.2,0.15a1.7,1.7,0,0,1,.36-0.48,1.17,1.17,0,0,1,.57.06,4.29,4.29,0,0,1-.32.33,0.45,0.45,0,0,0,.14.27,0.76,0.76,0,0,1,.32-0.62h0.33l0.18,0.1L34,24.73a1,1,0,0,1,.34.06,0.89,0.89,0,0,1-.07.36l0.14,0.24a0.74,0.74,0,0,0,0-.61l0.23-.14,0.18-.27a0.68,0.68,0,0,0-.64.26c-0.14,0,0-.22-0.06-0.29a0.69,0.69,0,0,1,.51-0.65l0.23-.08a1.18,1.18,0,0,1-.67-0.76c0.19,0,.39.06,0.59,0.08a3.87,3.87,0,0,0,.47-0.22c0.05-.14-0.07-0.36-0.23-0.26a3.89,3.89,0,0,1-.79.09A0.67,0.67,0,0,1,33.79,22c0.22,0,.55.17,0.67-0.11a4.14,4.14,0,0,0-.41-0.2H33.51a2.83,2.83,0,0,1-.61-0.46,3.78,3.78,0,0,0,.6.05m0.32-.63a0.46,0.46,0,0,1,.3.33c0.08,0,.26,0,0.22-0.15a1.34,1.34,0,0,1,.12-1,0.88,0.88,0,0,0-.57-0.06A1.16,1.16,0,0,0,34,20a2,2,0,0,1,.06.37,0.85,0.85,0,0,1-.27.3m6.24,1.17H39.83a1.12,1.12,0,0,1-.31-0.35c0.05-.13.11-0.26,0.17-0.4A0.59,0.59,0,0,1,39.2,21a0.72,0.72,0,0,1-.2-0.42H38.51a4,4,0,0,1-.13-0.43H38a2.27,2.27,0,0,1-.2-0.68,2.82,2.82,0,0,1-.17.37l-0.2,0a0.48,0.48,0,0,1-.46-0.41,1.89,1.89,0,0,1-.2.4,1,1,0,0,1-.49-0.2A0.37,0.37,0,0,0,36,19.35c0,0.16,0,.3.06,0.46a2.1,2.1,0,0,1-.53-0.26,4.58,4.58,0,0,1-.16-0.47l-0.09.09a1.79,1.79,0,0,0,0,.46,3.5,3.5,0,0,1,1.14.53A3.62,3.62,0,0,1,37,20a2.4,2.4,0,0,1,1,.58c0.77,0.76,1.24,1.74,1.93,2.56l0.2,0.06a0.48,0.48,0,0,1,0-.57,0.38,0.38,0,0,1-.36-0.46l0.23-.33m0.23,1.71a2.35,2.35,0,0,0,.31-0.16,1,1,0,0,0-.6-0.18l0.12,0.1a0.65,0.65,0,0,1-.57,0,3.32,3.32,0,0,0,.72.95l-0.14.3c0.22-.07.42-0.2,0.64-0.27a0.9,0.9,0,0,0-.47-0.3l-0.1-.23,0.1-.22m3.39,0.08a1,1,0,0,1,.46.26v0.34l-0.26.19a0.68,0.68,0,0,1,.05.62l0.3-.19a3.3,3.3,0,0,1,.15-0.82,2.31,2.31,0,0,0,.07-0.52,1.94,1.94,0,0,1-1.13-.22,3.69,3.69,0,0,1-.09.43,2.72,2.72,0,0,1,.44-0.1m0.18,0.43-0.19-.21a0.91,0.91,0,0,0-.33.33l0.09,0.11a2.27,2.27,0,0,0,.43-0.23m-2.49,1.44A0.45,0.45,0,0,0,41.23,25a0.51,0.51,0,0,0,.13.52m1.58-.36A1.87,1.87,0,0,1,42.87,25l-0.2,0c0,0.11.07,0.22,0.1,0.33l0.18-.16m-0.48.27a0.5,0.5,0,0,1-.51.28l-0.25-.23-0.22.26a0.73,0.73,0,0,0-.31.06,1.17,1.17,0,0,0,.62.16,0.83,0.83,0,0,1,.78-0.06l0.16-.05a1.08,1.08,0,0,1,.5-0.28,1.23,1.23,0,0,0,.29,0,1.52,1.52,0,0,0,.33-0.47A0.68,0.68,0,0,1,43.27,25c0,0.16-.05.31-0.08,0.47a0.57,0.57,0,0,1-.72,0m5.73-1.1a5.21,5.21,0,0,0-.81.73,9,9,0,0,1-3.11,1.85,7.92,7.92,0,0,1-3.56.34A4.9,4.9,0,0,1,40.1,27a1.64,1.64,0,0,1-.06.47c-0.06.15-.1,0.29-0.15,0.45,1.06-.09,2.11-0.06,3.15-0.23a5.41,5.41,0,0,0,1.26-.3,10.12,10.12,0,0,0,1.86-1c0.26-.18.5-0.39,0.76-0.57s0.57-.57.85-0.87a2.35,2.35,0,0,0,.42-0.62M49,30.56c0.07,0.14.13,0.28,0.19,0.42l0.12-.43H49m-0.73-.24c0,0.19.08,0.37,0.12,0.56a2.84,2.84,0,0,0,.29-0.4l-0.41-.16m-0.69-.64c0,0.18.11,0.4,0.34,0.34a2.41,2.41,0,0,0-.34-0.34M47,29.84L47,30.22A1.65,1.65,0,0,0,47.36,30a4.1,4.1,0,0,1-.14-0.4l-0.09-.09c0,0.06,0,.19,0,0.25l-0.08.1m1.24,2.34a1.27,1.27,0,0,0-.15-0.47c0,0.21-.06.42-0.09,0.63l0.24-.16m-0.2,1.59a2.49,2.49,0,0,0,.4.09l-0.06-.29A0.44,0.44,0,0,1,49,33.33L48.77,33c0.06-.12.13-0.24,0.2-0.36a0.38,0.38,0,0,1-.38-0.38l-0.23.36a0.7,0.7,0,0,1-.67-0.26l0.07-.41-0.21.15A1.23,1.23,0,0,1,47.1,32a0.8,0.8,0,0,1,0-.65H46.91l-0.22-.2a1.79,1.79,0,0,0,.38-0.61l-0.26,0-0.09-.19c0-.14,0-0.28,0-0.42a0.79,0.79,0,0,0,.07-0.4,4.42,4.42,0,0,1,0-.85H47.2a3,3,0,0,1-.16-1l-0.08-.05a10.45,10.45,0,0,0-.32,1.49,8.32,8.32,0,0,0,0,1.52,2.93,2.93,0,0,0,.76,2.08,1.07,1.07,0,0,0,.82.38l0.26-.19L48.67,33a3.07,3.07,0,0,1-.58.73M47.3,34c0.13,0.12.26,0.23,0.4,0.33,0-.16.07-0.33,0.1-0.5a2.18,2.18,0,0,0-.5.16m-2.23,2.4-0.41,0,0.21,0.19L45.17,37a0.87,0.87,0,0,1,.1-0.47,0.67,0.67,0,0,1,.57,0,1.43,1.43,0,0,0,0-.18c0-.13,0-0.25,0-0.37a3.24,3.24,0,0,1-.82.45M45,34.31l0.15,0.08a3.38,3.38,0,0,1,.33-0.48c0.06,0.14.13,0.27,0.2,0.41s-0.08.51-.06,0.77l0.16-.1a1.06,1.06,0,0,0-.06-0.54L46,34.31c-0.12-.24-0.41-0.64-0.7-0.37l-0.16-.24c0,0.07,0,.2,0,0.27l-0.09.11L45,34.31M44.84,33l-0.19.26v0.23l0.14,0.15L45,33.26l-0.2-.3m-0.54-.49c0,0.18,0,.37,0,0.55l0.13,0.07a1.45,1.45,0,0,0-.12-0.62M44.36,32l0.32,0a1.42,1.42,0,0,0,.29.64,7.54,7.54,0,0,1-.37-2.1,4.4,4.4,0,0,0-.29,1.79c0-.09,0-0.19.06-0.28M47,34a2.4,2.4,0,0,1-.66-0.1V34a0.87,0.87,0,0,1,.48.31A3.1,3.1,0,0,0,47,34m-0.72.21-0.08.15a6.47,6.47,0,0,0,.3.75l0.22-.05L47,34.84a2.78,2.78,0,0,1-.74-0.61M46,35.91h0.43V35.67l0.12-.25a0.57,0.57,0,0,1-.42-0.4,0.52,0.52,0,0,1-.79.17c0-.2,0-0.4,0-0.6a1.24,1.24,0,0,1-.54,0c0-.08-0.07-0.16-0.11-0.25a1.46,1.46,0,0,1,0-.19A1.91,1.91,0,0,1,44.81,34a1.1,1.1,0,0,0-.4-0.22,2.34,2.34,0,0,0,1,1.72,1.58,1.58,0,0,0,.95,0L46,35.91m-5.1-.23-0.16.2-0.3.2,0.46,0,0.27,0.07-0.27-.51m0.94-.25a1.13,1.13,0,0,0-.2-0.56,0.93,0.93,0,0,1-.47-0.36c0,0.28,0,.56,0,0.85h0.46l0.31,0.45c0-.07,0-0.2,0-0.26l-0.1-.11m0.38-2.28,0.12,0.2c0.19,0.06.37,0.15,0.56,0.2,0-.16.05-0.32,0.09-0.47a0.9,0.9,0,0,0-.76.07m0.09-.58c-0.12.09-.26,0.16-0.38,0.26l0.19,0,0.3-.14a1.26,1.26,0,0,0-.12-0.16m-0.91,1.29c0,0.2.07,0.41,0.09,0.61l0.32-.16a1.75,1.75,0,0,0-.41-0.45m-0.79-1.37c0.08,0.16,0,.43-0.21.41a1.14,1.14,0,0,0,.31.19,1.29,1.29,0,0,1,.63.58c0-.11.06-0.23,0.08-0.34l0.33-.19L41.6,33V32.6a2.83,2.83,0,0,1-.57.07l-0.17-.09a12.08,12.08,0,0,0-.58-1.23l-0.16.12c0.12,0.36.37,0.66,0.47,1m-0.64,0,0.34,0.19c0-.09,0-0.17-0.05-0.25L40,32l-0.26.48H40m0.5,0.6a1.47,1.47,0,0,0-.66-0.3c0,0.11,0,.21,0,0.32a1.5,1.5,0,0,0,.67,0M38.8,30.51a3.32,3.32,0,0,0-.31.74L39,31.61a1.56,1.56,0,0,1,0,1.06,2.18,2.18,0,0,1-.58.64l0.45,0.17a1.57,1.57,0,0,1,.57-0.9,6.18,6.18,0,0,0-.06-1.27,2,2,0,0,1-.46.17,2.15,2.15,0,0,0-.11-1M39.49,34l0.2,0.22,0.21-.05c0-.11,0-0.22,0-0.32a1.48,1.48,0,0,0-.4.16m0.1-.31,0.22-.12a0.54,0.54,0,0,1,.4.62,2.46,2.46,0,0,0-.13.25,2.45,2.45,0,0,1-.95-0.05,5,5,0,0,0-.71-0.9,2,2,0,0,0,.36.94,1,1,0,0,0,.47.33h0.38a3.3,3.3,0,0,0,.61-0.41l0.12-.23c0-.21,0-0.42,0-0.62a2.56,2.56,0,0,1,.5.33,5.22,5.22,0,0,1,.28.51,2.19,2.19,0,0,0-.07-0.51c-0.14-.14-0.27-0.29-0.42-0.41a0.63,0.63,0,0,0-.5,0,1.14,1.14,0,0,1-.6-0.09,0.54,0.54,0,0,0,0,.38m1.15-2.18c0.08,0.29.23,0.55,0.33,0.83a0.54,0.54,0,0,0,.47,0,6.24,6.24,0,0,1,.37-0.57A4.09,4.09,0,0,1,41,30.51c0,0.15,0,.3,0,0.45l0.4,0.4a2.9,2.9,0,0,1-.67.14m1.58-1.77A3.76,3.76,0,0,0,42,31.65l0.3-.18a16.32,16.32,0,0,1,.05-1.76m-0.13,2.16a5.11,5.11,0,0,0-.37.59,0.87,0.87,0,0,0,.59-0.35,2.78,2.78,0,0,0-.22-0.24m0.07,3.83a0.42,0.42,0,0,0,.14.32,3.34,3.34,0,0,1,.1-0.48l-0.24.16m-0.2-.23,0.21-.2c0-.12,0-0.26.05-0.38a0.43,0.43,0,0,1,.5,0,1.11,1.11,0,0,1-.06.92,0.59,0.59,0,0,1,.73.15,4.37,4.37,0,0,1-.09.44,1.16,1.16,0,0,1,.67-0.15,1.23,1.23,0,0,1,.08.51c0,0.13,0,.25,0,0.38,0.07-.16.12-0.33,0.18-0.5l0.29-.22c-0.18-.09-0.37-0.15-0.57-0.22a3.64,3.64,0,0,1-1.5-2.49,6.05,6.05,0,0,0-.63-0.33,0.37,0.37,0,0,0-.29.13,5.54,5.54,0,0,0,.44.51,2.74,2.74,0,0,1,.17.57,2.7,2.7,0,0,1-.17.82M39.94,37.8a0.77,0.77,0,0,1,.5.27c0-.15,0-0.29,0-0.43l0.3-.15a1.22,1.22,0,0,1-.23-0.68,0.7,0.7,0,0,1-.4-0.33,0.48,0.48,0,0,1,.08-0.36,1.06,1.06,0,0,1-1-.17,7.87,7.87,0,0,1,.78.92,0.78,0.78,0,0,1,0,.93m-0.83.59a1.14,1.14,0,0,1,.55.24,3.23,3.23,0,0,1-.08-0.71l-0.36-.13a1.48,1.48,0,0,1-.12.6m0.22-1.13a0.38,0.38,0,0,0,.35.38,1,1,0,0,0,.12-0.43,1.3,1.3,0,0,0-.68-0.78,2.77,2.77,0,0,1,.22.83m-3.14-1.16,0.23-.24a0.64,0.64,0,0,1,.4.4c0-.05.06-0.16,0.08-0.2l0.18-.12a1.24,1.24,0,0,1,.38.22,3.15,3.15,0,0,0,0,.39c-0.1.36-.14,0.74-0.23,1.1a0.87,0.87,0,0,0,.15.86c0.17-.05.46-0.08,0.44-0.33,0.1-.67-0.37-1.27-0.25-1.93a0.43,0.43,0,0,1,.31-0.32,0.63,0.63,0,0,1,.34.29,0.45,0.45,0,0,1,.39-0.34l0.28,0.23A0.38,0.38,0,0,1,39,35.74a0.7,0.7,0,0,1,.4,0,1.21,1.21,0,0,0,.63.18l0.05,0a1.14,1.14,0,0,0,.73-0.66,4.51,4.51,0,0,0-.08-1.06l-0.11.09a1.42,1.42,0,0,1-.94.81,1.21,1.21,0,0,1-1.19-.43,2.81,2.81,0,0,1-.46-1.48l0.3-.15a0.89,0.89,0,0,0,.37-1,1,1,0,0,0-.61-0.5A4.47,4.47,0,0,1,38.76,30a2.78,2.78,0,0,1,.26.27,2.36,2.36,0,0,1,.24.68l0.12-.29,0.12-.16c0.11,0.39.16,0.79,0.26,1.19a1.73,1.73,0,0,0,.14-0.93,2.54,2.54,0,0,0,.68.43l0.16,0A2.49,2.49,0,0,1,40,29.92a6.91,6.91,0,0,0-.13-0.8,0.41,0.41,0,0,1,.36,0,3.16,3.16,0,0,0,.57,1.07c0-.2.07-0.4,0.08-0.6l0.28-.05a4.42,4.42,0,0,0,.56,1.5,4.77,4.77,0,0,1,.76-2.21c0.1,0,.27,0,0.3.09,0,0.43-.15.87-0.16,1.31s0,0.79,0,1.19a1.07,1.07,0,0,0,.47,0l0.41,0.14,0.1,0.09a2.18,2.18,0,0,0-.66.21,2.46,2.46,0,0,1-.27.55v0.3a1.35,1.35,0,0,1,.76.37,2,2,0,0,1,.71.91,1.86,1.86,0,0,0-1.24-.16,2.07,2.07,0,0,0,.12.44,3.11,3.11,0,0,0,.7,1.3,1.53,1.53,0,0,0,1.29.63,1.36,1.36,0,0,0,.56-0.36,1.7,1.7,0,0,1-1.12-1,5.33,5.33,0,0,1-.4-2,5.14,5.14,0,0,1,0-1.15,6.1,6.1,0,0,1,.6-2.14l0.3,0a6.36,6.36,0,0,0,.33,2.9,2.69,2.69,0,0,0,.54.89,1.75,1.75,0,0,0,2.23.08L48,33.31l-0.19-.06-0.16,0a2.68,2.68,0,0,1-1.3-2.34,3.68,3.68,0,0,1,0-1,8.52,8.52,0,0,1,.22-2c0.07-.19.12-0.37,0.19-0.56a3.24,3.24,0,0,1,.24-0.77l0.28-.05A5.81,5.81,0,0,0,48,29.73a2.27,2.27,0,0,0,.85.55h0.46a2.12,2.12,0,0,1-.63-1,3.64,3.64,0,0,1-.13-1V25a2.14,2.14,0,0,0-.08-0.49,5.73,5.73,0,0,0-.57.73l-0.22.21a3,3,0,0,1-.36.34L47.27,26c-0.28.19-.52,0.42-0.79,0.61a7.74,7.74,0,0,1-4.54,1.52,1,1,0,0,1-.6,0,3.11,3.11,0,0,0-.46.06,3,3,0,0,0-.7,0c-0.27.15-.61-0.07-0.89,0.08a2.73,2.73,0,0,0,.5-1c0-.32,0-0.65,0-1a2.69,2.69,0,0,0,.72.57,1.65,1.65,0,0,0,.86.16l0.25,0c0.29-.08.59,0,0.88,0a0.86,0.86,0,0,1,.4,0,0.54,0.54,0,0,1,.33,0l0-.06a3.11,3.11,0,0,0,.37,0l0.19-.08a2.6,2.6,0,0,0,.47-0.16,7.77,7.77,0,0,0,2.1-1.12,1.52,1.52,0,0,0,.47-0.36,5.72,5.72,0,0,0,.77-0.73l0.25-.24a3.37,3.37,0,0,0,.56-0.6,4.41,4.41,0,0,0-1-2.64l-0.08-.05A2.9,2.9,0,0,0,45.83,20a2.5,2.5,0,0,0-2.42.74,1.94,1.94,0,0,0-.33,1.77,1.14,1.14,0,0,0,1,.78,3.17,3.17,0,0,0,.71-0.12,2.8,2.8,0,0,1-.14,1c0,0.14-.06.28-0.1,0.41a0.93,0.93,0,0,1-.13.54,1.75,1.75,0,0,0-.3.19,1.28,1.28,0,0,1-.31.46,0.91,0.91,0,0,1-.52.11l-0.19.05a2.62,2.62,0,0,1-.26.24,3.34,3.34,0,0,1-.68,0,1.12,1.12,0,0,1-.69.15l-0.31-.16a1.87,1.87,0,0,1-.71,0l-0.76-.29a4.11,4.11,0,0,0-.33-1.17c-0.11-.28-0.31-0.52-0.4-0.81a2.26,2.26,0,0,1,.63.19,6.66,6.66,0,0,1-.75-1.23L39.05,23,39.46,23c-0.19-.33-0.46-0.61-0.65-0.94A9.53,9.53,0,0,0,38,21a5.42,5.42,0,0,0-.86-0.7,0.81,0.81,0,0,0-.45,0c0,0.12.07,0.25,0.1,0.37a1,1,0,0,1,1.15.69l-0.5,0-0.16-.11a5.52,5.52,0,0,1-.44-0.59,2.8,2.8,0,0,0,.36.77,3.45,3.45,0,0,0,.19.64,0.53,0.53,0,0,1-.57.63l-0.19-.08a3.06,3.06,0,0,0-.33-0.25,1.85,1.85,0,0,1-.4,1.1l0.36-.12a2.22,2.22,0,0,1-.68,1.2H36c-0.25.35-.51,0.69-0.74,1.06,0,0.06,0,.17-0.06.22L35,26a2.68,2.68,0,0,1-.46.19,1.9,1.9,0,0,0-.42,0l-0.27-.08-0.22.19-0.57,0-0.27-.17-0.2.1A0.73,0.73,0,0,1,31.95,26a3.2,3.2,0,0,0-.82-0.24,0.78,0.78,0,0,1-.26-0.45,3.5,3.5,0,0,0-.38-0.2,1.93,1.93,0,0,1-.07-0.47c0-.4-0.22-0.75-0.26-1.15,0-.13-0.05-0.32.11-0.38l0.2,0.12a1.28,1.28,0,0,0,1-.19,1.43,1.43,0,0,0,.45-1.51A2,2,0,0,0,31,20.27a2.63,2.63,0,0,0-2.39-.17,3.72,3.72,0,0,0-1.13.77,1.63,1.63,0,0,1-.3.36l-0.05.13A3.85,3.85,0,0,0,26.6,23a8.75,8.75,0,0,0-.14,1.79c0,1.27,0,2.54,0,3.8a2.06,2.06,0,0,1-.8,1.62A1.31,1.31,0,0,0,27,29.68a4.48,4.48,0,0,0,.69-2.14,2,2,0,0,0,0-.89l0.13-.16H28q0.2,0.49.35,1a8.57,8.57,0,0,1,.35,2,10.14,10.14,0,0,1,0,1.45,3.93,3.93,0,0,1-.15.85A1.92,1.92,0,0,1,27,33.27a2,2,0,0,0,.31.26,1.76,1.76,0,0,0,2.1-.43,4.72,4.72,0,0,0,.6-1.48,5.36,5.36,0,0,0,.13-2.1l0.29-.09a9.06,9.06,0,0,1,.55,1.66,6.74,6.74,0,0,1,.06,2,1.09,1.09,0,0,0,0,.72,1,1,0,0,1,.21-0.43c0.12-.22.4-0.27,0.52-0.5L32,32.78l0.33-.08c0-.12,0-0.24.05-0.36a1.56,1.56,0,0,1-.33-0.61l-0.55-.12V31.54L32,31.38l0.46,0c0-.4-0.07-0.82-0.07-1.23a0.72,0.72,0,0,0,0-.36A2.88,2.88,0,0,1,32.31,29a0.76,0.76,0,0,1,0-.23l0.28,0a5,5,0,0,1,.61,1.46c0.05,0.23.09,0.47,0.13,0.71a5,5,0,0,0,.57-1.43h0.23c0,0.21.06,0.42,0.09,0.63A2.39,2.39,0,0,0,34.8,29l0.29,0.06A3.78,3.78,0,0,1,35,30a3.78,3.78,0,0,1-.69,1.18,2,2,0,0,0,.81-0.39,1.59,1.59,0,0,0,.08.95l0.12-.11a2.44,2.44,0,0,1,.21-1.09c0.08,0.12.15,0.23,0.23,0.35a1.37,1.37,0,0,1,.31-0.72l0.17-.09a3.7,3.7,0,0,1,.64,1.38,0.93,0.93,0,0,0-.66.6,1.05,1.05,0,0,0,.65,1.06,1.86,1.86,0,0,1-.53,1.6,1.28,1.28,0,0,1-.61.34H35.38L35,34.92A1.36,1.36,0,0,1,34.32,34a1.63,1.63,0,0,0-.05,1.3l0.16,0.2a1.18,1.18,0,0,0,.84.33,1.29,1.29,0,0,1,.73-0.2c0.06,0.14.13,0.28,0.19,0.42M36.5,36.2a1.25,1.25,0,0,0-.46,1,2.32,2.32,0,0,0,.46-1m-0.15,2a2.28,2.28,0,0,0,.37-1.54,3.38,3.38,0,0,0-.4.69,1.35,1.35,0,0,0-.22.49,0.41,0.41,0,0,0,.25.36M37.07,37a2.71,2.71,0,0,0,.13-0.74L37,36.4a1.48,1.48,0,0,0,0,.61m1,0.15a2.35,2.35,0,0,0-.19-0.95,1,1,0,0,0,.19.95m0.26-.43a8,8,0,0,0,.13,1.13,0.57,0.57,0,0,0,.27.37l0.18-.14a2.9,2.9,0,0,0-.57-1.36m0.57,0.43,0.14,0c-0.09-.21-0.18-0.42-0.28-0.62a0.42,0.42,0,0,0-.28-0.32,4.94,4.94,0,0,0,.42,1M38,39.23l0.41,0s0-.13,0-0.18l-0.19-.2a1,1,0,0,0-.23.37m-1.47,0a1.23,1.23,0,0,0,.47,0,0.46,0.46,0,0,0-.35-0.34c0,0.1-.08.21-0.12,0.31m0.19-.63a1.3,1.3,0,0,1,.68.68h0.21c0.09-.17.19-0.33,0.29-0.49l0.33-.16,0.25,0a3.69,3.69,0,0,1,.3.36,2.05,2.05,0,0,1,.12-0.53,1.07,1.07,0,0,1-.61-0.17c-0.06-.12-0.11-0.24-0.17-0.36,0,0.15,0,.29,0,0.43a0.75,0.75,0,0,1-.85.36L37,38.46c0-.11,0-0.21-0.05-0.32a0.94,0.94,0,0,1-.75.33c0,0.16.08,0.32,0.12,0.48a0.84,0.84,0,0,1,.47-0.39M26.23,21.07a2.13,2.13,0,0,1-.15-0.36,3.49,3.49,0,0,0,0-.4c-0.23.16-.48,0.3-0.71,0.47a9.63,9.63,0,0,0-1.47,1.08,1.17,1.17,0,0,0-.47.39l-0.13,0c-0.29.32-.65,0.56-1,0.85a18.86,18.86,0,0,0-1.49,1.57,22.05,22.05,0,0,0-4.64,8.46c-0.09.42-.22,0.82-0.31,1.24,0,0.13-.06.26-0.08,0.38-0.09.42-.15,0.85-0.23,1.27s-0.08.93-.16,1.4a8,8,0,0,0,0,.88,5.56,5.56,0,0,0,0,.81,2.37,2.37,0,0,0,.53,0c3.87,0,7.73,0,11.6,0,1.24,0,2.49,0,3.72,0a5.06,5.06,0,0,0,.76,0c0.57,0,1.16,0,1.73,0s1.43,0,2.14,0V38.81a1,1,0,0,0-.12-0.14l-0.39.27a2.94,2.94,0,0,1-.94-0.16,1.32,1.32,0,0,0,.65-0.47C35.28,38.18,35,38,35,38.18a0.79,0.79,0,0,1-.52.43,3.44,3.44,0,0,0-.64-0.06,3.55,3.55,0,0,0,.45-0.44c0.06-.12.19-0.26,0-0.37a1.46,1.46,0,0,1-.66,0,1.22,1.22,0,0,1-.33-0.57,1.52,1.52,0,0,1,.42.07l0.33,0L34.24,37a1.54,1.54,0,0,0-.54-0.4,1.84,1.84,0,0,0,.9-0.29H34.24v0.05l-0.42,0-0.26,0-0.33-.25c0.23-.14.63-0.32,0.47-0.65a1.74,1.74,0,0,1-.67.58,0.48,0.48,0,0,0-.46.07,3,3,0,0,1-.12.29c-0.16-.18-0.3-0.37-0.47-0.54a0.68,0.68,0,0,0,0,.55,2,2,0,0,1-.15.83,2.67,2.67,0,0,1-.15-0.24l-0.3-.54-0.18,0a1.46,1.46,0,0,1,0,.6,0.9,0.9,0,0,1-.24.3c-0.17,0-.34.08-0.52,0.13a1.61,1.61,0,0,0,0-.82,1.81,1.81,0,0,1-.7.65,1.3,1.3,0,0,0-.52.07c0.12-.22.26-0.42,0.36-0.64l-0.1-.16a1.69,1.69,0,0,1-.73.12c-0.16-.1-0.33-0.19-0.48-0.28,0.25-.07.62-0.05,0.61-0.4-0.26,0-.5.06-0.76,0.07a1.26,1.26,0,0,1-.43-0.43h0.54l0.07-.12a1.63,1.63,0,0,1-.43-0.37,5.18,5.18,0,0,1-.15-0.55,3.45,3.45,0,0,0,.17-0.39,2.41,2.41,0,0,1-.66.3,0.9,0.9,0,0,1-.53-0.3A1.21,1.21,0,0,0,27.05,34a4.4,4.4,0,0,1-.78,0,4.46,4.46,0,0,1-.61-0.26,5.3,5.3,0,0,1,.5-0.16,0.49,0.49,0,0,0,.08-0.1l-0.43,0-0.21-.1a0.82,0.82,0,0,1-.13-0.57c0.16,0,.33,0,0.49,0a1.28,1.28,0,0,1-.36-0.54,2.44,2.44,0,0,1,.13-0.85,4.19,4.19,0,0,0,.29.67l0.08,0a1,1,0,0,1,.3-0.59c0.15,0,.3,0,0.45,0a0.62,0.62,0,0,0,0,.74L27,32.13a0.92,0.92,0,0,1-.12-0.47,0.74,0.74,0,0,1,.29-0.46c0.12,0.18.23,0.6,0.52,0.48l-0.32-.54a2.35,2.35,0,0,0,.23-0.88c-0.07-.16-0.26,0-0.38,0a1.16,1.16,0,0,0-.34.71,1.29,1.29,0,0,1-.5.51,6.32,6.32,0,0,1-.16-0.69c-0.07.13-.14,0.27-0.2,0.41l-0.35.15a2.62,2.62,0,0,0-.43-0.07c0.08-.15.17-0.31,0.26-0.46a5.46,5.46,0,0,1-.81.13,0.92,0.92,0,0,1-.37-0.36l0.3-.17a1,1,0,0,1-.55-1.12l0.48,0.36a1.33,1.33,0,0,1,.2-1,6.79,6.79,0,0,0,.31.62,0.14,0.14,0,0,0,.24,0c-0.08-.28-0.29-0.49-0.37-0.77a1.77,1.77,0,0,1,0-.5,2.81,2.81,0,0,1,.36.17,0.5,0.5,0,0,0,.4,0,0.58,0.58,0,0,0-.47-0.53A1,1,0,0,1,25,26.78c0.22,0.09.42,0.4,0.68,0.22a0.75,0.75,0,0,0-.49-0.4l-0.12-.18C25,26.22,25,26,25,25.83a5.64,5.64,0,0,0,.61.27,1.36,1.36,0,0,0-.4-0.53,3,3,0,0,1-.12-0.79c0.19,0.09.37,0.2,0.57,0.3a1.85,1.85,0,0,1,0-.2l-0.4-.29a1.37,1.37,0,0,1-.09-0.93,1.61,1.61,0,0,1,0-.82,4.43,4.43,0,0,0,.46.39,5.09,5.09,0,0,0-.4-0.83c0.07-.17.13-0.34,0.19-0.52a3.31,3.31,0,0,0,.43.42c0.16-.2-0.08-0.33-0.17-0.49a1.14,1.14,0,0,1,.07-1c0.12,0.19.23,0.38,0.36,0.57l0.12,0V21.07ZM15.53,41l0.22,0.05a1.71,1.71,0,0,1,1-.05c-0.33-.53-0.75-1-1.07-1.54H15.47A9.37,9.37,0,0,0,15.53,41M16.65,42l0.22,0.29c0.09-.21.18-0.42,0.29-0.63a3.22,3.22,0,0,0-.73-0.32c-0.23,0-.47.06-0.71,0.08a0.19,0.19,0,0,0-.15.23,10.92,10.92,0,0,1,1.08.35m-1,.67c0.26-.05.54-0.08,0.8-0.15l-0.06-.19a3.78,3.78,0,0,0-.82-0.26,5.47,5.47,0,0,1,.08.6m0.14,0.75c0.31,0,.61.11,0.93,0.07,0-.2,0-0.4,0-0.6l-0.24,0a2.68,2.68,0,0,1-.75.12,1.43,1.43,0,0,0,.07.45m0.1,0.52,0.16-.09c0-.11-0.15-0.17-0.22-0.1a0.12,0.12,0,0,0,.06.19m0.21,0.92a3.68,3.68,0,0,1,.43-0.22,2.84,2.84,0,0,1,.51,0A4.9,4.9,0,0,1,16.82,44a1.78,1.78,0,0,0-.78.43,1.75,1.75,0,0,0,.11.48m0.23,0.94A5.23,5.23,0,0,0,17,45a1.62,1.62,0,0,0-.72.26c0.05,0.19.09,0.38,0.14,0.57m1.87,0.09-0.3.53c0,0.38.11,0.75,0,1.13-0.05.15-.12,0.29-0.17,0.44a2.66,2.66,0,0,0,.38-0.29c0.13-.38.14-0.79,0.29-1.17a2.67,2.67,0,0,0,.33-0.4c-0.19-.08-0.38-0.15-0.57-0.25m-1.58-6a1.7,1.7,0,0,1-.17-0.16l-0.22-.08a7.25,7.25,0,0,0,.58.8c0.21,0.25.36,0.54,0.57,0.78l0.4-.4c-0.34-.36-0.79-0.61-1.16-0.94M17.39,40a4.32,4.32,0,0,0,.62.44,1.28,1.28,0,0,0-.41-1,6.58,6.58,0,0,0-.78,0,3,3,0,0,0,.57.5m1.56,0.28a1.73,1.73,0,0,0-.27-0.79H18.13a3.24,3.24,0,0,0,.23.51V40.5c0.19-.08.39-0.14,0.58-0.2m1.13-.13A2.11,2.11,0,0,1,20,39.68a0.42,0.42,0,0,0-.5-0.18,3.25,3.25,0,0,0-.07.67h0.64m0.65-.65-0.36,0a0.74,0.74,0,0,0,.11.51,3.89,3.89,0,0,0,.25-0.5m0.72,0H21.13a1,1,0,0,1-.24.55,0.32,0.32,0,0,0-.15.26c0.15,0.08.31,0.16,0.47,0.25a0.87,0.87,0,0,0,.3-0.44,0.56,0.56,0,0,0,0-.62m0.68,5.65a2.14,2.14,0,0,0-.43.45c0.52,0.36,1,.79,1.52,1.1-0.18-.35-0.47-0.62-0.67-1a6.81,6.81,0,0,0-.43-0.6m0.54-1a1.85,1.85,0,0,0-.27.51,1,1,0,0,0,.62.39c0.27,0,.54-0.09.82-0.09a2.91,2.91,0,0,1,.67.23,4.53,4.53,0,0,0-.42-0.44,5.33,5.33,0,0,0-.91-0.26,1.8,1.8,0,0,1-.5-0.32m0.75-2.07c0.11-.2.26-0.38,0.37-0.57a4.75,4.75,0,0,0,.57-0.3,0.58,0.58,0,0,0-.4-0.06c-0.31.14-.56,0.37-0.86,0.54a3.31,3.31,0,0,1-.61.13,4.56,4.56,0,0,0,.19.6,2.47,2.47,0,0,0,.75-0.34m-0.52.72-0.14.09v0.61c0.64-.11,1.28-0.2,1.93-0.27a0.37,0.37,0,0,0,0-.09l-0.57-.07L23.63,43C23.43,43,23.24,43,23,43l-0.15-.12m-0.21-3.29a3.08,3.08,0,0,0-.75,0,4.36,4.36,0,0,0,0,.64,3.4,3.4,0,0,0,.74-0.59m-0.18.64-0.19.15c-0.21.19-.44,0.35-0.65,0.53a3.36,3.36,0,0,1,.41.47,12.87,12.87,0,0,0,1.18-1.7,8.94,8.94,0,0,0-.75.56m-2,6c0,0.09,0,.19.06,0.28a1.33,1.33,0,0,0,.56.74,1.47,1.47,0,0,1,.43.39,3.11,3.11,0,0,1,.09.47h0.1c0-.22,0-0.43.05-0.64a8.52,8.52,0,0,1-.5-1.06l-0.07-.42c-0.23.13-.49,0.15-0.72,0.26m-1.1.12c0,0.43.15,0.85,0.19,1.28a3.18,3.18,0,0,0,.16.77c0-.08,0-0.24,0-0.33,0.12-.57.14-1.16,0.27-1.73a0.94,0.94,0,0,0-.65,0m0.28-.37a2.73,2.73,0,0,0,1.93-.83,3,3,0,0,0,.75-1.86A4.05,4.05,0,0,0,22,41.84c-0.53.22-1.11,0.17-1.64,0.39,0-.1,0-0.2,0-0.3a4.57,4.57,0,0,1,.65-0.2,6.29,6.29,0,0,0,.83-0.08,2.49,2.49,0,0,0-1.48-1,8.07,8.07,0,0,0-.87-0.07,1,1,0,0,1-.38.05,4,4,0,0,0-1,.5,1.23,1.23,0,0,0-.49.54,3.75,3.75,0,0,1,.39.06,3.17,3.17,0,0,0,.72,0,1,1,0,0,1,.72.15,0.56,0.56,0,0,1-.06.71c0-.14-0.08-0.29-0.12-0.43a5.5,5.5,0,0,1-1.76-.44,4.47,4.47,0,0,0-.38.92,2.77,2.77,0,0,0,0,1.16,3,3,0,0,0,1.36,1.78,3.09,3.09,0,0,0,1.18.34m-3.14.54a11,11,0,0,0,1.26-.89l-0.43-.43a11.32,11.32,0,0,1-.86,1.08c0,0.09,0,.16,0,0.24m0.67,1.71c0.15-.2.26-0.43,0.4-0.65,0-.12,0-0.23,0-0.35a5.26,5.26,0,0,1,0-.93,8.33,8.33,0,0,0-.82.64,6.15,6.15,0,0,0,.47,1.29m8.82,7.52a1.47,1.47,0,0,0,.44.55A2.49,2.49,0,0,0,26,55.17c-0.37-.41-0.85-0.71-1.23-1.1s-0.46-.58-0.71-0.85A6.2,6.2,0,0,0,24.19,55,4.2,4.2,0,0,0,26,57.45a3.31,3.31,0,0,1,0-1.76M27.14,59a2.57,2.57,0,0,0,.6.26,4.69,4.69,0,0,1-.93-1.48,3.15,3.15,0,0,1-.23-0.89l-0.29-.27a1.33,1.33,0,0,0,0,.58,4.22,4.22,0,0,0,.8,1.79m2.07,1a3.67,3.67,0,0,1-.13-2.1,29,29,0,0,0-2.28-3.39,7.54,7.54,0,0,0,.54,3.52,5.19,5.19,0,0,0,1.87,2m0.36-.16a1.23,1.23,0,0,0,.45.51c0-.25,0-0.51,0-0.76l0-.08c0-.36.1-0.73,0.12-1.1l0,0,0.06,0.19c0,0.26.06,0.54,0.12,0.8a0.8,0.8,0,0,0,.72.57,3.49,3.49,0,0,1-.6-1.41,8,8,0,0,0-.36-1.52,2.84,2.84,0,0,0-.38-0.64,15.75,15.75,0,0,0-.43,2.38,3.66,3.66,0,0,0,.22,1m0.89,0.62a9.76,9.76,0,0,0,1.39.4,4.64,4.64,0,0,0-.34-0.42,4.25,4.25,0,0,1-1.06-.35c0,0.12-.18.33,0,0.36m-1.23-7.14a3.67,3.67,0,0,0-.87-1,1.92,1.92,0,0,0-.58-0.42A7.67,7.67,0,0,1,28,53.86a7,7,0,0,0,0,1.8c0.42,0.53.73,1.14,1.15,1.68a3.09,3.09,0,0,0,.19-1.13,3.68,3.68,0,0,0-.55-0.74,5.28,5.28,0,0,1,.87.43,8.5,8.5,0,0,0-.06-1,3.77,3.77,0,0,0-.37-0.75c-0.24-.39-0.65-0.64-0.9-1l0.86,0.2m3.34,5a8.46,8.46,0,0,0-.68-0.82,2.2,2.2,0,0,1-.54-1,8.65,8.65,0,0,0-.21-1,2.8,2.8,0,0,0-1.58-1.66c0,0.12.11,0.23,0.16,0.34a2.82,2.82,0,0,1,.36.92,14.58,14.58,0,0,1,.27,1.54A5.49,5.49,0,0,1,30.77,58a3.18,3.18,0,0,0,.32,1.27,6.09,6.09,0,0,1,0-1.13,5.88,5.88,0,0,1,.34-1,1.67,1.67,0,0,1,.29.61c0.09,0.14.19,0.26,0.3,0.4s0.34,0.3.53,0.42a2.91,2.91,0,0,1,.61.69l0-.2c-0.22-.24-0.43-0.5-0.66-0.74m0.51-1c-0.13-.24-0.27-0.47-0.38-0.71a6.1,6.1,0,0,1-.37-2.21,2.46,2.46,0,0,0-.82-1.48c0.07,0.68-.34,1.27-0.31,1.94a3.35,3.35,0,0,1,.25.47c0.2,0.43.14,0.93,0.33,1.37a6.71,6.71,0,0,0,.86,1.16c0.17,0.21.33,0.43,0.53,0.62a2.1,2.1,0,0,1-.09-1.15m-0.46,3.73a5.59,5.59,0,0,1-.29-1.51,5.69,5.69,0,0,0,1.14.87,7.46,7.46,0,0,0-1.11-1.58,2.43,2.43,0,0,1-.81-0.79,2.91,2.91,0,0,0,.65,2.67,2.58,2.58,0,0,0,.43.33m0.83,0.23a9.53,9.53,0,0,0,1,.15,0.93,0.93,0,0,0-.71-0.5,6,6,0,0,1-.88-0.45,0.94,0.94,0,0,0,.63.8m0-4.22a2.21,2.21,0,0,0,0,1.1c0.08-.12.14-0.27,0.21-0.39a5,5,0,0,1,.3.69,2.15,2.15,0,0,0,.55.64l0.07-.05a1.65,1.65,0,0,0,0-.7,5.83,5.83,0,0,1-.2-1.26,3.21,3.21,0,0,0-.71-1.85c0,0.08,0,.22,0,0.29a3.11,3.11,0,0,1-.29,1.54m1.67,4.4,0.2,0.13c0.15,0,.44.09,0.47-0.12a5.84,5.84,0,0,1-.33-1.31c-0.37-.47-1-0.55-1.43-1-0.12-.14-0.21-0.29-0.33-0.43s-0.09.11-.12,0.19a3,3,0,0,0,0,1c0.14,0.19.27,0.4,0.42,0.59a7,7,0,0,0,1.07.92M36,60.83c0.06,0.28.16,0.55,0.23,0.82A1.79,1.79,0,0,0,37,61.57a5.13,5.13,0,0,1,0-1.38,2.33,2.33,0,0,1-.78-0.62,2.68,2.68,0,0,0-.4-0.48,1.44,1.44,0,0,0,0,.81c0.09,0.3.09,0.63,0.21,0.93m0.57-3.32a3.51,3.51,0,0,0-1.5,1.06,1.52,1.52,0,0,0-.15.77,5.42,5.42,0,0,0,.49.26,2.34,2.34,0,0,1,.5-1.48,3.62,3.62,0,0,0,.19.58,2.43,2.43,0,0,0,.47-1.2m-0.51-.17a0.83,0.83,0,0,0,.32-0.16c0.21-.26.14-0.63,0.33-0.91,0,0.13,0,.25.08,0.37a2.61,2.61,0,0,1-.07,1.72c-0.09.26-.29,0.44-0.37,0.7a1,1,0,0,0,.21.34,4.57,4.57,0,0,1,.15-0.73,4.37,4.37,0,0,0,.45-1.3c0-.27.06-0.54,0.06-0.82a1.62,1.62,0,0,1-.45-0.37l-0.1-.06a2.27,2.27,0,0,0-.25-0.3A4.52,4.52,0,0,1,36,55.14a1.73,1.73,0,0,0,.3.87l0.19,0.19c0,0.42-.37.72-0.38,1.13m-0.67.41,0.21-.11a3.85,3.85,0,0,1,.48-1.23,4,4,0,0,1-.48-1,1.6,1.6,0,0,0-.46-1.13,10.54,10.54,0,0,0,.46,2c0,0.5-.22,1-0.2,1.48M31.44,43.55l-0.12.07c0.51,0.23,1,.47,1.55.67,0,0,.05-0.13.07-0.17a1.82,1.82,0,0,0-.54-0.85,1.23,1.23,0,0,1-.34-1,6,6,0,0,1-.61-0.23,1,1,0,0,0-1.23.33,1.45,1.45,0,0,1,.63,0,2.3,2.3,0,0,0,.4.1l0.4,0.2a3.17,3.17,0,0,1,.41.39,1.84,1.84,0,0,1,.31.69,6.53,6.53,0,0,0-.93-0.21m5.4,1a2.35,2.35,0,0,0,.85.54,1.69,1.69,0,0,0,.9-0.09,4.94,4.94,0,0,0,1.56-1A10.69,10.69,0,0,0,41,42.83a0.54,0.54,0,0,0-.46-0.1l-0.08-.07-0.15,0a5.29,5.29,0,0,0-1.17-.26,1.81,1.81,0,0,1-.82,1,1.09,1.09,0,0,1-.8,0c-0.12-.13-0.26-0.26-0.37-0.41,0.26,0,.52.06,0.78,0.05a1.46,1.46,0,0,0,.76-0.65A3.21,3.21,0,0,1,38.83,42c0.43,0,.87.09,1.31,0.05s1-.07,1.57,0a1.48,1.48,0,0,1,.68-0.36,16.67,16.67,0,0,1,3.57,0,3.91,3.91,0,0,0,2.19-.43,7.57,7.57,0,0,0,1.57-.92,0.31,0.31,0,0,0,.12-0.31l-0.43.09c-1.09.22-2.19,0.36-3.29,0.47-0.6,0-1.19.13-1.79,0.12a9.46,9.46,0,0,1-1.55,0c-0.37-.08-0.75,0-1.13-0.08-1.12-.09-2.24-0.19-3.35-0.35a6.22,6.22,0,0,0-.85-0.07,0.72,0.72,0,0,0-.55,0,1.66,1.66,0,0,1-.33.08A1.74,1.74,0,0,0,36,42.56a2.29,2.29,0,0,1,.28,1.2,2.78,2.78,0,0,0,1.27.54,4.1,4.1,0,0,0,.54.12c-0.41.09-.83,0.11-1.24,0.16m0.41,15.07a7.79,7.79,0,0,1,.11-0.85A2.71,2.71,0,0,1,38,57.53c0.28-.84.36-1.72,0.57-2.58,0.08,0.12.17,0.26,0.26,0.37s0,0.4,0,.59c0.16,0.25.37,0.46,0.55,0.7a3.41,3.41,0,0,0,.65.5A0.27,0.27,0,0,0,40.37,57a3.56,3.56,0,0,1-1.1-1.23,9.22,9.22,0,0,1-.31-0.9,0.86,0.86,0,0,1,.3.22,14.77,14.77,0,0,0,1.43,1.34c0.22,0.15.41,0.33,0.64,0.48,0-.17,0-0.34,0-0.51a7.71,7.71,0,0,1-1-1,4.25,4.25,0,0,1-.61-1.1,2.74,2.74,0,0,1-.29-0.71c0.23,0.26.45,0.53,0.68,0.8a3.84,3.84,0,0,0,.4.47c0.32,0.29.67,0.54,1,.83l0.21-.36a5.94,5.94,0,0,1-2.22-2.61,1.89,1.89,0,0,1-.64-1.14,1.72,1.72,0,0,1-.71-0.33,2.49,2.49,0,0,1-.17-0.67,5.92,5.92,0,0,1,.6.5c0.19,0.09.39,0.16,0.58,0.24s0.12,0.41.21,0.61l0.49,0.63a2.54,2.54,0,0,0,.59.35,1.69,1.69,0,0,0,.65-0.09c-0.25-.38-0.58-0.7-0.81-1.09C40.14,51.49,40,51.26,39.92,51a5,5,0,0,1-.32-0.62,0.62,0.62,0,0,1,.36.3c0.26,0.34.64,0.56,0.89,0.9a2.33,2.33,0,0,0,1.25.54c-0.42-.6-0.94-1.12-1.3-1.76a13.65,13.65,0,0,0,1.71,1,1.39,1.39,0,0,0,1.32,0,7.38,7.38,0,0,1-1.46-1.07,3.34,3.34,0,0,1-.63-0.72c0.53,0.29,1.08.55,1.62,0.83a3.63,3.63,0,0,0,.95.31,1.91,1.91,0,0,0,.95-0.54c-0.24-.14-0.49-0.26-0.74-0.4a4.1,4.1,0,0,1-1.41-.92c0.6,0.14,1.19.33,1.79,0.44a2.07,2.07,0,0,0,1,0L46.12,49l-0.51-.17a4.47,4.47,0,0,1-.92-0.4A4.76,4.76,0,0,1,43.87,48a12.65,12.65,0,0,0,2.69.22,2.91,2.91,0,0,0,1-.72c-0.6-.23-1.24-0.31-1.83-0.55a4.43,4.43,0,0,1-.82-0.26l0,0a2,2,0,0,0-.64-0.23,1.35,1.35,0,0,1-1.09,1.13,2.54,2.54,0,0,1-.54,0,4.4,4.4,0,0,1-.46,0,2.78,2.78,0,0,1-1.18-.45,2.43,2.43,0,0,1-2.16-1.13,14,14,0,0,0,1.32.66,2.05,2.05,0,0,0,1.31.09,0.87,0.87,0,0,1,.39-0.23,1.25,1.25,0,0,1-.55.56,3.91,3.91,0,0,0,.67.17,3.1,3.1,0,0,0,1.26-.07,1.31,1.31,0,0,0,.95-0.8l0.17,0.07c0.59,0,1.17.06,1.75,0.05s0.89,0,1.34.09,0.86,0,1.28,0a6.48,6.48,0,0,0,1.16,0c0.23-.06.48-0.08,0.72-0.14a5.7,5.7,0,0,0,1.6-.61,0.56,0.56,0,0,0,.26-0.27c-0.34,0-.67.08-1,0a15.56,15.56,0,0,1-3.6-.27l-0.47-.16c-0.26-.14-0.55-0.23-0.8-0.39,0.5,0,1,0,1.5,0h0.86c0.22,0,.44,0,0.66,0a6.69,6.69,0,0,0,.89,0,2.91,2.91,0,0,1,.64-0.06,0.76,0.76,0,0,0,.37,0,4.15,4.15,0,0,0,.77-0.12,1.13,1.13,0,0,1,.43-0.07l0,0A1.11,1.11,0,0,0,53,44.52a3.81,3.81,0,0,1,.53-0.19l0.32-.15a2,2,0,0,0,.87-0.73c-0.06-.19-0.26-0.12-0.4-0.07l-0.25.09-0.29,0a2.17,2.17,0,0,0-.3.06,0.91,0.91,0,0,0-.41,0c-0.34,0-.68.09-1,0.1a1,1,0,0,0-.46.06c-0.4,0-.79.05-1.19,0a1.41,1.41,0,0,0-.57.05,26.8,26.8,0,0,1-3.15-.12c-0.09.19-.06,0.4-0.16,0.58a1.22,1.22,0,0,1-.85.64,4.68,4.68,0,0,1-.17.73,3.41,3.41,0,0,0-.25.31A2,2,0,0,1,44,46.3c-0.26,0-.52-0.06-0.78-0.08L43,46.14,43.13,46a2.77,2.77,0,0,0,1.54-.16A2.53,2.53,0,0,0,45.52,45,0.68,0.68,0,0,0,45,45a2.71,2.71,0,0,1-.65-0.15l-0.37,0a1.74,1.74,0,0,1,.4-0.09A3.15,3.15,0,0,0,46,44.39a0.72,0.72,0,0,0,.5-0.68,14.68,14.68,0,0,1-1.93-.23,5.51,5.51,0,0,1-1.1,1.07,5,5,0,0,1-.77.36H42.43a1.84,1.84,0,0,0-.43,0l-0.43-.16a1.61,1.61,0,0,1-.37-0.13l-0.24,0a2,2,0,0,1,.57-0.07,3.3,3.3,0,0,0,2-.54c0.27-.24.48-0.55,0.74-0.81a3,3,0,0,1,.7,0c0.31,0,.62,0,0.92,0a11.55,11.55,0,0,0,1.45,0,21.47,21.47,0,0,0,5.49-.73,3.61,3.61,0,0,0,.69-0.3,6,6,0,0,0,2.59-1.91,1.83,1.83,0,0,1,0-.2,8.47,8.47,0,0,1-1.55.78,6.6,6.6,0,0,1-.93.27,7.28,7.28,0,0,1-.71.21l0,0a8.35,8.35,0,0,1-1,.22,4.06,4.06,0,0,0-.44.07,2.87,2.87,0,0,0-.62.12c-0.25-.05-0.47.09-0.73,0.06l-0.11.08a2.06,2.06,0,0,0-.48,0l-0.4,0L49.07,42l-0.5,0a1.94,1.94,0,0,1-.9,0c-0.47.09-1,0-1.43,0.06a4.36,4.36,0,0,0-1-.08,2.3,2.3,0,0,0-.61,0,2.55,2.55,0,0,0-.69-0.08,2.57,2.57,0,0,0-2.17.53c-0.34.42-.58,0.91-0.92,1.32-0.19.27-.45,0.48-0.66,0.74a8,8,0,0,1-1.55.91,2.39,2.39,0,0,0-.57.11l-0.43-.07A3.24,3.24,0,0,1,36,44.3l0.19,0c0.1-.09-0.08-0.12-0.12-0.18-0.35-.22-0.65-0.49-1-0.72a13,13,0,0,0-1.78-1.09,0.92,0.92,0,0,0-.9.07,0.9,0.9,0,0,0,.22.61,3.53,3.53,0,0,1,.61.88l0,0.33c0,0.11-.06.24-0.09,0.36a0.67,0.67,0,0,1-.53.08c0,0.4.08,0.79,0.12,1.19s-0.09.88,0,1.32a2.33,2.33,0,0,0,.33-0.65s0-.09,0-0.12h0.1a7.61,7.61,0,0,0,.09.92,2.12,2.12,0,0,0,.06.66l0.3-.33a8,8,0,0,0-.1,1.87,2.38,2.38,0,0,0,.35,1.47,6.13,6.13,0,0,1,.58,1.2c0.22,0.49.25,1,.43,1.53l0.34-.53a2.17,2.17,0,0,0,.43,1.26,8.59,8.59,0,0,1,.56-1.33l0.09,0a5.49,5.49,0,0,0,0,2.1,2.89,2.89,0,0,0,1.16,1.15c0,0.12,0,.24,0,0.36-0.05.41-.12,0.83-0.2,1.23a11.2,11.2,0,0,0-.49,1.25,0.26,0.26,0,0,1,0,.07,2.32,2.32,0,0,0-.05.41,1.08,1.08,0,0,0,.23.19l0.14-.19m0.9-.76a1.73,1.73,0,0,0-.26-0.49,1.79,1.79,0,0,0-.23.94,5.54,5.54,0,0,1,.5-0.45m-0.73,2.81a0.45,0.45,0,0,0,.47-0.44A6.77,6.77,0,0,1,38.39,60a2.44,2.44,0,0,0,0-.85,2.46,2.46,0,0,0-1.07,1.34,5.12,5.12,0,0,0,.05,1.24m1.65-4.52a4.75,4.75,0,0,0-.39-0.66,2.44,2.44,0,0,0-.09.47l0.19,0.19h0.29m-0.64.21c0,0.21-.07.42-0.13,0.63a1.4,1.4,0,0,0,.08.75c0.23-.19.46-0.37,0.71-0.53a7.66,7.66,0,0,1-.23.85,2,2,0,0,0,.43-0.43,10.76,10.76,0,0,1,2.06-1.13c0-.08,0-0.17,0-0.26l-0.08-.12a2.1,2.1,0,0,1-.53-0.28c0,0.12-.07.25-0.12,0.36a0.8,0.8,0,0,1-.85.16c-0.11-.11-0.22-0.19-0.33-0.29s0,0.16,0,.2a0.7,0.7,0,0,1-1,.08m0,4.29,0.16-.06,0.1-.2a3.71,3.71,0,0,1,2.47-2.17A3.31,3.31,0,0,0,42,57.57c-0.72.51-1.61,0.72-2.31,1.24A4.39,4.39,0,0,0,38.79,60c-0.17.26-.22,0.58-0.37,0.86s-0.17.48-.24,0.72L38.4,61.7m0.64,0a4.68,4.68,0,0,1,1.06-1.18,8.7,8.7,0,0,1,1.16-.68A7.24,7.24,0,0,0,40.75,61a6.37,6.37,0,0,1,1.3-.74,5.85,5.85,0,0,0,1.83-1,4.26,4.26,0,0,0,.92-2.25c-0.36.35-.65,0.76-1,1.09l-0.11,0a0.47,0.47,0,0,1-.25.21l-0.19.16c-0.24.16-.5,0.29-0.73,0.46l-0.58.26c-0.36.18-.77,0.25-1.14,0.4s-0.45.27-.67,0.41a3.75,3.75,0,0,0-.82,1,0.78,0.78,0,0,0-.25.65m1.24-.18a1,1,0,0,0,.08-0.81,3.45,3.45,0,0,0-.76.85,1.79,1.79,0,0,0,.68,0M42,61.27l0.12,0,0.53-.13L43.23,61a2.33,2.33,0,0,0,.2-0.36,1.76,1.76,0,0,0,.16-0.38,1,1,0,0,0-.55,0,9.85,9.85,0,0,0-1.62.74,1.1,1.1,0,0,0-.46.46,4,4,0,0,0,1-.19m2.1-1.62c-0.06.08-.3,0.14-0.19,0.25a5.48,5.48,0,0,0,2.23-1.47,5.64,5.64,0,0,0,1.4-2c0.23-.56.53-1.07,0.77-1.61a4.92,4.92,0,0,0-1,.55,2.85,2.85,0,0,0-.82.68,3.83,3.83,0,0,0-1.06,1,1.31,1.31,0,0,0-.32.68,3.8,3.8,0,0,1-1,1.89m0.72-5.39a10.47,10.47,0,0,1-.1,1.39,4.9,4.9,0,0,0,.71-0.85,4.49,4.49,0,0,0,.37-0.89A3.23,3.23,0,0,0,45.9,53c-0.33.32-.71,0.57-1,0.9a5,5,0,0,0-1,1.29c0.33-.3.63-0.65,0.95-1m-1.49,2.28-0.09-.05a0.76,0.76,0,0,0-.28.48,1.22,1.22,0,0,0,0,.44c0,0.3,0,.6,0,0.89a5.09,5.09,0,0,0,1.18-1.09,3.06,3.06,0,0,0,.63-1.07L44.89,56l-0.53.3c-0.25.08-.49,0.18-0.75,0.26a2.88,2.88,0,0,0,.74-1.26,1.06,1.06,0,0,0-.25.2,7.8,7.8,0,0,0-.79,1M43,55.73a3,3,0,0,0,.26.42A9.53,9.53,0,0,1,43.5,55a4.86,4.86,0,0,0-.47.71m-0.42.14a3.06,3.06,0,0,1,.61-1.11,1.61,1.61,0,0,0,.19-1.08c-0.36.65-1,1.08-1.37,1.68a5.14,5.14,0,0,0-.29.82,3.75,3.75,0,0,0,0,1.11,4.81,4.81,0,0,0,.78-0.58,6.78,6.78,0,0,1-.61,2.18l0.25,0a0.87,0.87,0,0,0,.5-0.4c0.08-.86-0.18-1.72,0-2.58M48,58.37A3.62,3.62,0,0,0,49.51,57c0.05-.22.1-0.44,0.16-0.66V55.83a5.18,5.18,0,0,1-1.34.69c-0.19.1-.4,0.18-0.58,0.28-0.16.39-.42,0.73-0.57,1.12a5.36,5.36,0,0,0,1-1.13c-0.08.53-.12,1.06-0.18,1.58m-1.34,1.42a1.47,1.47,0,0,0,.65-0.6,3,3,0,0,0,.35-1.12,4.79,4.79,0,0,1-1,.45A10.21,10.21,0,0,1,44.66,60a3.57,3.57,0,0,0-.57.21,1.22,1.22,0,0,0-.28.63,18.17,18.17,0,0,0,2.81-1M60.14,41.14c0,0.34,0,.68-0.08,1-0.09.65-.18,1.31-0.31,2,0,0.12-.05.26-0.08,0.4A23.38,23.38,0,0,1,59,46.78a11.54,11.54,0,0,1-.63,1.65,20.67,20.67,0,0,1-2.94,4.91,21.58,21.58,0,0,1-3.35,3.49c-0.53.35-1,.81-1.53,1.13a16.46,16.46,0,0,1-1.95,1.23c-0.64.41-1.35,0.67-2,1-0.23.1-.47,0.2-0.7,0.29l-0.54.21a24.36,24.36,0,0,1-5.13,1.19,8,8,0,0,1-1,.09c-0.44.09-.89,0-1.34,0.08a3,3,0,0,1-.84,0c-0.35,0-.7,0-1,0a4.12,4.12,0,0,0-.76-0.1,0.44,0.44,0,0,0-.36,0l-0.1-.09c-0.44,0-.86-0.13-1.3-0.15a5.22,5.22,0,0,0-.71-0.16,22.83,22.83,0,0,1-5-1.73,4.44,4.44,0,0,0-.68-0.35c-0.25-.12-0.46-0.3-0.71-0.43a19.85,19.85,0,0,1-1.8-1.13c-0.44-.35-0.89-0.7-1.34-1a8.3,8.3,0,0,1-1.09-1,0.94,0.94,0,0,0-.32-0.26c-0.2-.23-0.43-0.44-0.63-0.68a6.58,6.58,0,0,1-.89-1A21.48,21.48,0,0,1,17,48.55a15,15,0,0,1-.74-2c0-.16-0.1-0.31-0.15-0.47C16,45.77,15.9,45.4,15.79,45s-0.12-.55-0.19-0.82a23,23,0,0,1-.5-4.72,7.52,7.52,0,0,1,0-1.62,10.16,10.16,0,0,1,.08-1.18,22.53,22.53,0,0,1,.42-2.59c0.06-.21.11-0.42,0.15-0.63s0.05-.16.08-0.23A22.06,22.06,0,0,1,21.7,23.3a5.34,5.34,0,0,0,.47-0.45c0.57-.49,1.13-1,1.72-1.46,0.23-.15.44-0.33,0.68-0.46a8.36,8.36,0,0,1,.88-0.61l0.29-.15c0.75-.43,1.48-0.88,2.25-1.26,0.45-.16.89-0.36,1.32-0.55a3.36,3.36,0,0,1,.47-0.16,13.9,13.9,0,0,1,2.67-.78l0,0c0.22,0,.43-0.09.64-0.12l0.31-.06A3.16,3.16,0,0,0,34.17,17,4.05,4.05,0,0,0,35,17a2.47,2.47,0,0,1,.4,0,0.68,0.68,0,0,1,.39-0.05l0.08,0a4,4,0,0,1,.67,0h0.38c0.43,0,.88,0,1.32,0a1.62,1.62,0,0,1,.74.05,23.41,23.41,0,0,1,6.63,1.44,29.15,29.15,0,0,1,4.19,2.14,20.87,20.87,0,0,1,3.07,2.41A6.82,6.82,0,0,1,54.05,24a21.09,21.09,0,0,1,1.54,1.8,22.44,22.44,0,0,1,2.53,4.24,19.58,19.58,0,0,1,1.49,4.41c0.12,0.47.17,1,.29,1.42a6.23,6.23,0,0,0,.12.92,5.72,5.72,0,0,1,.1,1c0.09,0.45,0,.91.08,1.35,0,0.23,0,.47,0,0.71-0.12.43,0,.88-0.09,1.31M54.56,15.05a2.9,2.9,0,0,1,.75.57c0.4,0.51,1,.82,1.42,1.3l-0.14.16a1.83,1.83,0,0,0-.87-0.42l-0.32.21a3.21,3.21,0,0,1-.44.48c-0.26.24-.44,0.54-0.71,0.76,0.4,0.42.86,0.78,1.28,1.17a8.59,8.59,0,0,0,.67.57l0.34,0.35a2.58,2.58,0,0,1,.56-0.6c0.13-.34.48-0.53,0.64-0.85a0.58,0.58,0,0,0,0-.5,2.7,2.7,0,0,1-.4-0.61l0.24,0c0.54,0.54,1.13,1,1.69,1.53a0.42,0.42,0,0,1,.22.43,4.31,4.31,0,0,0-.66-0.37,0.73,0.73,0,0,0-.71.33c-0.45.4-.82,0.89-1.24,1.32s-0.72.78-1.06,1.2a0.87,0.87,0,0,0-.29.81,5.3,5.3,0,0,0,.36.55l-0.13.1c-0.64-.67-1.44-1.16-2.08-1.82l0.16-.11L54.48,22a1,1,0,0,0,.87-0.5c0.33-.31.61-0.68,0.93-1a5.83,5.83,0,0,0-.62-0.54c-0.55-.51-1.14-1-1.68-1.51-0.39.48-.83,0.92-1.22,1.4,0,0.09-.08.2-0.12,0.3a1.7,1.7,0,0,0,.47.85l-0.17.12c-0.6-.61-1.29-1.14-1.91-1.75,0,0-.15-0.19,0-0.21a1.79,1.79,0,0,1,.55.28l0.26,0a2.76,2.76,0,0,0,.95-0.8c0.63-.71,1.29-1.41,1.9-2.14A1.7,1.7,0,0,0,55,16l-0.06-.1a2,2,0,0,1,0-.22,1.46,1.46,0,0,1-.34-0.62m-33.64-.3c-0.71.53-1.39,1.11-2.11,1.63-0.33.2-.6,0.49-0.92,0.71a1,1,0,0,1-.59.11c0.3,0.43.55,0.91,0.88,1.33l0.14-.06a1.57,1.57,0,0,1-.08-1.08,3.68,3.68,0,0,1,1-1c0.85,1.09,1.65,2.21,2.47,3.32a0.87,0.87,0,0,1,.19.95,1.07,1.07,0,0,0-.37.67c0.8-.59,1.58-1.21,2.39-1.79a1,1,0,0,0-.68.19H22.88l-0.19-.12a11.31,11.31,0,0,1-.88-1.07c-0.64-.86-1.29-1.72-1.95-2.57a4,4,0,0,1,1.24-.79l0.37,0.06c0.2,0.13.41,0.26,0.61,0.4l0.11-.19c-0.39-.37-0.69-0.8-1.06-1.17a2.6,2.6,0,0,1-.22.47m4.75,0.57c-0.37.17-.7,0.41-1.06,0.58a12.47,12.47,0,0,0-.28-1.53c0-.2,0-0.4,0-0.6a9,9,0,0,1,.7.64c0.22,0.11.3,0.38,0.54,0.47s0.42,0.33.15,0.43m3.53,1.32,0-.15a1.28,1.28,0,0,1-.95-0.09,3.82,3.82,0,0,1-.82-0.74c-0.39-.48-0.9-0.85-1.33-1.3-0.6-.63-1.3-1.16-1.85-1.83l-0.12,0a2.84,2.84,0,0,1-.31.64,8.82,8.82,0,0,1,.3,1.51c0.17,0.64.16,1.32,0.28,2a12.19,12.19,0,0,1,.15,1.76,3.28,3.28,0,0,0-.48.78c0.71-.27,1.38-0.64,2.07-1l-0.19-.18-0.34.13-0.35.08A0.88,0.88,0,0,1,25,18a6.31,6.31,0,0,1-.3-1.7c0.51-.21,1-0.52,1.48-0.77a13.75,13.75,0,0,1,1.21,1.31V17.1a2.16,2.16,0,0,1-.34.41,2,2,0,0,1,.11.21c0.69-.35,1.37-0.72,2-1.09M48.29,13l0,0.2a6.35,6.35,0,0,1,.85-0.58,3.2,3.2,0,0,1,1.52.53c-0.4.8-.79,1.6-1.17,2.41a6.83,6.83,0,0,1-1.15,1.84,3.12,3.12,0,0,1-1.07-.09,0.67,0.67,0,0,0,.25.22c0.5,0.22,1,.49,1.47.73a6.37,6.37,0,0,0,1,.5,0.72,0.72,0,0,0-.41-0.55,0.82,0.82,0,0,1-.21-0.68c0.39-.82.85-1.59,1.22-2.41l0.12-.22c0.2-.47.45-0.93,0.68-1.4a2.58,2.58,0,0,1,1.22.83,2.07,2.07,0,0,1,.15,1.09l0.14-.08c0.21-.46.37-0.94,0.54-1.41a3.11,3.11,0,0,1-.48,0,9.48,9.48,0,0,1-1.26-.63C51,13.11,50.53,12.74,50,12.51a2.29,2.29,0,0,0-.32-0.15l-0.33-.22a2.51,2.51,0,0,0-.26-0.43c-0.26.43-.51,0.89-0.77,1.33m-2.77.7a0.93,0.93,0,0,0,0,.14,8,8,0,0,1-1.35-.45c0.25-.43.59-0.78,0.85-1.2a3.51,3.51,0,0,1,.43-0.54c0,0.25,0,.5,0,0.74,0.09,0.44,0,.89.08,1.32m1.54,3.33a1.39,1.39,0,0,1-.51-0.43,2.46,2.46,0,0,1-.16-1c-0.08-.34,0-0.69-0.06-1s0-.66,0-1,0-.85-0.09-1.27-0.06-1.13-.08-1.68a1.74,1.74,0,0,1-.73.3c0,0.07,0,.14,0,0.21-0.75,1-1.43,2-2.17,3a6.14,6.14,0,0,1-.72.93,1.26,1.26,0,0,1-.93.26v0.19c0.71,0.19,1.41.42,2.13,0.58a1.09,1.09,0,0,0-.57-0.44,0.55,0.55,0,0,1-.1-0.47,6.35,6.35,0,0,1,.87-1.47c0.54,0.15,1.06.3,1.58,0.47a4.38,4.38,0,0,1,.12,1c-0.06.28,0,.57-0.06,0.85a0.75,0.75,0,0,1-.8.3l0.08,0.16a20.64,20.64,0,0,1,2.15.64l0.12-.16M28.33,11.4a1.8,1.8,0,0,0-.19,1.36l0.08,0.11a1.09,1.09,0,0,0,.46.65c0.62,0.39,1.41.4,2,.79a1.11,1.11,0,0,1,.49,1,1,1,0,0,1-.34.71,1.42,1.42,0,0,1-1.89-.4,1,1,0,0,0-.47-0.5,1.43,1.43,0,0,0,.24.71c0.1,0.22.19,0.44,0.31,0.66a4.08,4.08,0,0,0,.92.1l0.57-.07A4.64,4.64,0,0,0,31.4,16a2,2,0,0,0,.47-0.89,1.47,1.47,0,0,0-.47-1.47,19.39,19.39,0,0,0-2.17-.9,1.17,1.17,0,0,1-.57-1A0.9,0.9,0,0,1,29.44,11a0.53,0.53,0,0,1,.61.13,2.4,2.4,0,0,1,.63.84l0.15-.09c-0.08-.4-0.18-0.8-0.25-1.2a3.69,3.69,0,0,0-1-.06,2,2,0,0,0-1.24.78m39.9,28.38a3.32,3.32,0,0,1,0,.49c-0.08.41,0,.83-0.08,1.24-0.06,1-.19,1.94-0.33,2.91a2.35,2.35,0,0,0-.12.57c-0.16.53-.17,1.09-0.35,1.61a18.51,18.51,0,0,1-.54,1.94c0,0.08-.05.16-0.08,0.23L66.65,49a25.33,25.33,0,0,1-1.39,3.29c-0.18.47-.47,0.89-0.67,1.34-0.15.26-.29,0.53-0.45,0.79-0.38.67-.85,1.3-1.27,2-0.22.32-.45,0.64-0.7,0.94a30.79,30.79,0,0,1-2.53,3,10.36,10.36,0,0,1-1.24,1.23,8.72,8.72,0,0,1-1.22,1.06l-0.08.09c-0.77.56-1.48,1.21-2.28,1.73-0.36.27-.75,0.51-1.12,0.75a24.11,24.11,0,0,1-2.8,1.56c-0.21.11-.42,0.19-0.62,0.32l-1.55.65a17.7,17.7,0,0,1-2.72,1,29.25,29.25,0,0,1-6.54,1.19,10,10,0,0,0-1.19.06c-0.47,0-.94,0-1.4,0s-0.94,0-1.39-.13a1.36,1.36,0,0,1-.61-0.06,6.93,6.93,0,0,1-1.19-.12,27.13,27.13,0,0,1-4.3-.89l-1.55-.47c-0.43-.18-0.9-0.31-1.32-0.54a22.79,22.79,0,0,1-2.37-1.06,33.8,33.8,0,0,1-4-2.37c-0.28-.25-0.6-0.44-0.89-0.67-0.75-.59-1.49-1.2-2.2-1.84-0.43-.48-1-0.84-1.37-1.36a31.67,31.67,0,0,1-4.28-5.57c-0.26-.44-0.49-0.89-0.76-1.33-0.33-.75-0.75-1.46-1.06-2.23s-0.54-1.37-.82-2.07c0-.15-0.09-0.31-0.16-0.47C8.43,48.05,8.22,47.33,8,46.59a34.09,34.09,0,0,1-.83-6.09,39.87,39.87,0,0,1,.12-4.63,30.27,30.27,0,0,1,1-5.19c0.19-.63.39-1.25,0.62-1.86s0.43-1.11.67-1.66A10.46,10.46,0,0,1,10.18,26,30.53,30.53,0,0,1,12,22.85,8.24,8.24,0,0,0,12.53,22c0.5-.64,1-1.31,1.47-1.94,0.46-.47.82-1,1.32-1.49a1.89,1.89,0,0,1,.38-0.45,31.65,31.65,0,0,1,3.61-3.16,27.16,27.16,0,0,1,3-2,30.91,30.91,0,0,1,4.32-2.1l0.13-.1c0.33,0,.63-0.23,1-0.3s0.67-.26,1-0.3L28.91,10c0.4-.08.78-0.22,1.17-0.33l0.19-.08,0.12,0a0.68,0.68,0,0,1,.47-0.12,4.72,4.72,0,0,1,.88-0.23l0.12,0a1.53,1.53,0,0,1,.56-0.12,0.81,0.81,0,0,1,.38-0.05A27.61,27.61,0,0,1,36.1,8.8c0.43,0,.86,0,1.3,0-0.11.58-.28,1.15-0.4,1.72a1.1,1.1,0,0,1-.16.47,7.43,7.43,0,0,1-.68-0.42c-0.44-.2-0.84-0.48-1.26-0.72a2.89,2.89,0,0,0,.3.55c0.3,0.47.57,1,.88,1.45a2,2,0,0,1-.47.18c-0.57.12-1.12,0.29-1.68,0.43a0.3,0.3,0,0,0,.3.08l0.22,0.06,0.23,0.07,0.22,0,0.22,0.07,0.32,0.07a3.57,3.57,0,0,0,.4.1l0.25,0.1c-0.19.32-.4,0.64-0.58,1a4.73,4.73,0,0,0-.59,1.06c0.61-.43,1.27-0.75,1.89-1.14L36.93,14c0.1,0.59.3,1.16,0.42,1.75,0,0.11.14,0.3,0,.36-0.39,0-.78,0-1.18,0s-0.51,0-.77.07a0.67,0.67,0,0,1-.35,0,0.52,0.52,0,0,1-.44,0l-0.11.1a0.8,0.8,0,0,0-.29,0c-0.24.09-.5,0.08-0.74,0.16a0.66,0.66,0,0,0-.35,0c-0.47.06-.92,0.19-1.38,0.29-0.29.07-.56,0.2-0.85,0.25l-0.23.09a4.76,4.76,0,0,0-.47.15,5.71,5.71,0,0,0-.61.2,23.87,23.87,0,0,0-2.38,1c-0.52.33-1.11,0.54-1.61,0.91s-1,.59-1.44.94a3,3,0,0,0-.47.36,1.22,1.22,0,0,0-.23.16,7.24,7.24,0,0,0-1.17,1l-0.11,0c-0.14.19-.33,0.32-0.48,0.51a7.83,7.83,0,0,0-.89.81c-0.22.3-.51,0.52-0.73,0.81a25,25,0,0,0-2.86,4.09,25.5,25.5,0,0,0-1.86,4.49l-0.28,1a20.72,20.72,0,0,0-.57,3.43,1.66,1.66,0,0,1-.06.39,13.78,13.78,0,0,0,0,2,5.46,5.46,0,0,1,0,.94,1.92,1.92,0,0,1,.1.7c0,0.39.06,0.78,0.11,1.18s0.09,0.68.16,1c0,0.13.06,0.27,0.08,0.4s0.1,0.51.15,0.78,0.1,0.41.16,0.62a21.77,21.77,0,0,0,1.59,4.43,22.54,22.54,0,0,0,1.61,2.78,17.32,17.32,0,0,0,2.55,3.11,4.54,4.54,0,0,1,.34.43c0.26,0.2.47,0.46,0.72,0.67,0.54,0.44,1.06.9,1.62,1.33,0.26,0.19.52,0.36,0.77,0.57,0.43,0.37.94,0.58,1.39,0.92s1,0.63,1.6.89a24.64,24.64,0,0,0,5.35,1.89c0.44,0.07.86,0.16,1.29,0.25a2.51,2.51,0,0,0,.34.05,3.47,3.47,0,0,1,.64.09l0.29,0,0.11,0.11,0.22,0c0.4,0,.78.1,1.19,0.07a1.85,1.85,0,0,1,.54,0c0.5,0.09,1-.06,1.49,0a26.59,26.59,0,0,0,3.59-.43c0.23-.06.44-0.12,0.67-0.16a22.66,22.66,0,0,0,3.7-1.21l0.14,0A19.16,19.16,0,0,0,49,59.76a20.68,20.68,0,0,0,2.12-1.34l0.29-.22,0.33-.26,0.12,0a2.79,2.79,0,0,1,.54-0.45c0.3-.32.7-0.54,1-0.87a9.63,9.63,0,0,0,.89-0.89c0.48-.46.9-1,1.33-1.46,0.2-.31.5-0.55,0.69-0.87a26.87,26.87,0,0,0,1.9-3,23.21,23.21,0,0,0,1.83-4.59,5.44,5.44,0,0,1,.15-0.62c0-.12.05-0.25,0.08-0.37a24.28,24.28,0,0,0,.5-3.15,1.91,1.91,0,0,1,.05-0.6c0-.34,0-0.69,0-1a4.4,4.4,0,0,0,0-1.23,20.69,20.69,0,0,0-.33-3.46c0-.13-0.05-0.27-0.08-0.4a5.45,5.45,0,0,0-.16-0.61L60.22,34a2.14,2.14,0,0,0-.09-0.24c0-.3-0.15-0.58-0.22-0.85A22.63,22.63,0,0,0,58.3,28.8a7.59,7.59,0,0,0-.59-1c-0.25-.5-0.57-0.95-0.87-1.42a29.37,29.37,0,0,0-2.29-2.81,5.08,5.08,0,0,0-.73-0.74,22.78,22.78,0,0,0-3.7-2.92c-0.27-.19-0.57-0.35-0.85-0.54a15.57,15.57,0,0,0-1.92-1,23.55,23.55,0,0,0-3.26-1.24,11.17,11.17,0,0,0-1.25-.34,0.68,0.68,0,0,0-.28-0.08l0,0-0.25-.06a4.08,4.08,0,0,1-.87-0.13,2,2,0,0,0-.54-0.07,2.58,2.58,0,0,1-.48-0.09,27.27,27.27,0,0,0-2.87-.16c0.15-.75.35-1.49,0.53-2.23,0.4,0.24.81,0.44,1.18,0.71a4.84,4.84,0,0,0,.8.47c-0.36-.68-0.79-1.33-1.14-2,0.41-.05.78-0.24,1.2-0.3l0-.05c0.19,0,.39-0.08.58-0.1l0-.05,0.36-.08c-0.75-.17-1.49-0.37-2.23-0.59,0.17-.27.32-0.56,0.47-0.85S39.8,10.3,40,9.9c-0.62.4-1.3,0.71-1.9,1.14-0.19-.54-0.27-1.1-0.46-1.65a3.82,3.82,0,0,1-.12-0.59,12.58,12.58,0,0,1,1.72,0h0.55l0.09,0.08a1.29,1.29,0,0,1,.64,0A1,1,0,0,1,41,9l0.36,0,0.08,0.08c0.5,0,1,.17,1.46.21s1.28,0.24,1.9.43a29.39,29.39,0,0,1,4.17,1.34,16.49,16.49,0,0,1,1.6.74l0.14,0c0.93,0.53,1.89,1,2.8,1.58,0.28,0.17.54,0.36,0.83,0.51l0.43,0.33a0.07,0.07,0,0,0,0,0,4.69,4.69,0,0,0,.76.59A32.83,32.83,0,0,1,60.06,19a5.68,5.68,0,0,1,.66.75,23.12,23.12,0,0,1,1.93,2.42c0.41,0.62.88,1.21,1.24,1.86a32.55,32.55,0,0,1,1.88,3.7,19.3,19.3,0,0,1,1,2.69,15.46,15.46,0,0,1,.47,1.56,2,2,0,0,1,0,.2c0,0.14.07,0.28,0.11,0.41a27.58,27.58,0,0,1,.81,6,5.91,5.91,0,0,1,0,.91,1.81,1.81,0,0,1,0,.36m-53.52-1a2.05,2.05,0,0,1,0-.82,23.54,23.54,0,0,1,.43-3.37c0-.13.08-0.27,0.11-0.42s0.12-.56.2-0.83a24,24,0,0,1,1.15-3.27,17.6,17.6,0,0,1,1.43-2.71c0.16-.26.35-0.51,0.49-0.78,0.37-.51.73-1,1.14-1.54A23.55,23.55,0,0,1,22,22.57a23,23,0,0,1,7-4.46,22.64,22.64,0,0,1,17.7.3c0.26,0.11.51,0.26,0.78,0.36l1.74,1A23.15,23.15,0,0,1,53.47,23a1.06,1.06,0,0,1,.29.23c0.27,0.35.63,0.61,0.9,1,0.61,0.65,1.13,1.38,1.68,2.09A17.83,17.83,0,0,1,57.4,28a13.82,13.82,0,0,1,.95,1.78c0.35,0.75.66,1.54,0.94,2.33s0.44,1.45.62,2.17c0,0.13.05,0.26,0.07,0.38a17.64,17.64,0,0,1,.52,4.08,7.74,7.74,0,0,1,0,1.27c-0.12.39,0,.82-0.08,1.23,0,0.72-.15,1.41-0.23,2.12-0.09.52-.19,1-0.31,1.55S59.63,46,59.44,46.6c-0.05.16-.11,0.31-0.15,0.47a24.12,24.12,0,0,1-1,2.41c-0.08.16-.17,0.32-0.25,0.49a24.11,24.11,0,0,1-3.44,4.92,26.82,26.82,0,0,1-2.42,2.27,23.92,23.92,0,0,1-2,1.52,6.13,6.13,0,0,0-.67.41,6,6,0,0,0-.68.37l-0.15.1-1.18.62-0.24.09a12.31,12.31,0,0,1-1.47.63A22.78,22.78,0,0,1,41.85,62a4,4,0,0,1-1.06.12l-0.08.09c-0.25,0-.49,0-0.74.05s-0.61,0-.91.09c-0.59-.07-1.19.06-1.79,0s-1.19-.05-1.79-0.11a21.78,21.78,0,0,1-5.86-1.38c-0.31-.11-0.63-0.22-0.93-0.36a2.41,2.41,0,0,0-.47-0.19c-0.34-.23-0.75-0.32-1.08-0.57a23.08,23.08,0,0,1-11-12.55c0-.16-0.09-0.31-0.16-0.47-0.17-.51-0.32-1-0.47-1.56,0-.21-0.09-0.41-0.16-0.62a23.15,23.15,0,0,1-.58-5,3.53,3.53,0,0,1,0-.81M36.67,12.11A8.81,8.81,0,0,1,36,10.95a3.23,3.23,0,0,1,.38.2,2.93,2.93,0,0,0,.75.43,6.88,6.88,0,0,1,.33-1.25,8.6,8.6,0,0,1,.33,1.25c0.44-.17.8-0.48,1.21-0.68-0.22.43-.47,0.83-0.7,1.26l0.19,0,0,0.08,0.2,0a3.44,3.44,0,0,1,.82.26c-0.37.19-.82,0.19-1.19,0.38,0.15,0.4.42,0.75,0.58,1.15a9.3,9.3,0,0,1-1.13-.64c-0.13.42-.19,0.86-0.36,1.27-0.12-.43-0.22-0.87-0.35-1.3A5.15,5.15,0,0,1,36,14c0.2-.39.45-0.74,0.67-1.12-0.42-.16-0.87-0.19-1.27-0.36a1.24,1.24,0,0,1,.6-0.21l0.24,0,0,0,0.4-.09M68.57,39.26a0.7,0.7,0,0,1,0-.36,3.84,3.84,0,0,1-.1-1.19c-0.06-.51-0.05-1-0.14-1.53a19.1,19.1,0,0,0-.47-2.79c-0.07-.47-0.21-0.93-0.31-1.4,0-.21-0.1-0.41-0.15-0.62-0.19-.68-0.43-1.33-0.63-2l-0.07-.23-0.09-.23c-0.12-.29-0.21-0.58-0.34-0.86a28.27,28.27,0,0,0-1.55-3.26A17.36,17.36,0,0,0,63.7,23a26.86,26.86,0,0,0-1.92-2.68c-0.64-.71-1.22-1.48-1.9-2.14s-1.4-1.44-2.18-2.09a31.71,31.71,0,0,0-9.29-5.61c-0.55-.18-1.1-0.37-1.65-0.57l-1.54-.44a29.15,29.15,0,0,0-6.71-1,35.45,35.45,0,0,0-4.16.13,30.2,30.2,0,0,0-9.23,2.43c-0.88.43-1.76,0.85-2.62,1.34a31.55,31.55,0,0,0-3.06,2,8.65,8.65,0,0,0-.74.59c-0.39.31-.8,0.6-1.16,0.95s-0.87.68-1.22,1.1a15.5,15.5,0,0,1-1.24,1.24,7.63,7.63,0,0,1-.58.66c-0.72.83-1.42,1.69-2.06,2.59-0.35.5-.67,1-1,1.49s-0.68,1.12-1,1.69c-0.46.94-1,1.86-1.34,2.83a28.76,28.76,0,0,0-1.53,4.74c-0.07.38-.16,0.76-0.23,1.15s-0.08.62-.15,0.93a30.53,30.53,0,0,0-.3,3.25,14.83,14.83,0,0,0,0,1.85,13.81,13.81,0,0,0,0,1.48A26.83,26.83,0,0,0,7.18,44a5.37,5.37,0,0,0,.15.93c0.09,0.52.19,1,.3,1.55,0,0.2.1,0.41,0.15,0.61S8,47.72,8,48A28.19,28.19,0,0,0,10,53a22.52,22.52,0,0,0,1.13,2,25.87,25.87,0,0,0,2,2.93A11.38,11.38,0,0,0,13.95,59c0.23,0.36.57,0.63,0.82,1L15,60.24c0.4,0.52,1,.91,1.37,1.42,0.14,0.1.27,0.22,0.4,0.33l0.28,0.29c0.61,0.45,1.14,1,1.76,1.44l0.08,0.09a12.72,12.72,0,0,0,1.34,1,16.93,16.93,0,0,0,1.6,1.06L22.1,66,22.23,66a12.08,12.08,0,0,0,1.1.6c0.33,0.19.68,0.35,1,.53a31.86,31.86,0,0,0,3,1.24,30.36,30.36,0,0,0,5,1.34c0.71,0.13,1.43.17,2.13,0.33a2.75,2.75,0,0,1,.36,0,1.11,1.11,0,0,0,.64.08,2.51,2.51,0,0,0,.8.07c0.36-.05.7,0.1,1.06,0a7.76,7.76,0,0,0,.86,0c0.19,0,.39,0,0.58,0a20.33,20.33,0,0,0,2.07-.13c0.68,0,1.36-.22,2-0.26l0.08-.06a33.39,33.39,0,0,0,5.19-1.39c0.7-.2,1.31-0.62,2-0.83l0.63-.31c0.7-.29,1.34-0.69,2-1,0.36-.22.71-0.46,1.08-0.67s0.64-.47,1-0.65,0.65-.47,1-0.68c0.47-.41,1-0.74,1.47-1.16,0.77-.64,1.5-1.31,2.21-2a15.38,15.38,0,0,0,1.4-1.47c0.78-.88,1.48-1.83,2.2-2.76,0.55-.83,1.11-1.66,1.62-2.52a28.37,28.37,0,0,0,2.27-5,24.73,24.73,0,0,0,.93-3.32c0.06-.26.12-0.52,0.16-0.78s0.11-.62.15-0.93a22.81,22.81,0,0,0,.31-2.83c0.1-.4,0-0.83.09-1.23a4.24,4.24,0,0,0,0-.89"/><rect x="303.46" y="9.13" width="1" height="61.76"/><path d="M443.61,53.39v-12a0.24,0.24,0,0,0-.28-0.28h-2a0.24,0.24,0,0,0-.28.28v12a0.24,0.24,0,0,0,.28.28h2a0.24,0.24,0,0,0,.28-0.28m0.28-16.1a1.54,1.54,0,1,0-1.54,1.54,1.52,1.52,0,0,0,1.54-1.54m-5.1,13.8a0.26,0.26,0,0,0-.17-0.22l-1.6-.81a0.94,0.94,0,0,0-.34-0.14,0.26,0.26,0,0,0-.22.17,2.64,2.64,0,0,1-2.35,1.62,2.55,2.55,0,0,1-2.52-2.52V45.55A2.55,2.55,0,0,1,434.12,43a2.64,2.64,0,0,1,2.32,1.57,0.26,0.26,0,0,0,.22.17,1.4,1.4,0,0,0,.48-0.2l1.46-.73a0.27,0.27,0,0,0,.17-0.25,2.83,2.83,0,0,0-.67-1.12,4.8,4.8,0,0,0-4-1.68c-3.08,0-5,2-5,4.76v3.64c0,2.8,2,4.76,5,4.76A4.8,4.8,0,0,0,438,52.39a4,4,0,0,0,.81-1.29m-12.63,2.3v-12a0.24,0.24,0,0,0-.28-0.28h-2a0.24,0.24,0,0,0-.28.28v12a0.24,0.24,0,0,0,.28.28h2a0.24,0.24,0,0,0,.28-0.28m0.28-16.1a1.54,1.54,0,1,0-1.54,1.54,1.52,1.52,0,0,0,1.54-1.54M420,53.39V45.83a4.6,4.6,0,0,0-4.76-4.76A4.28,4.28,0,0,0,412,42.33a0.28,0.28,0,0,1-.45,0,4.12,4.12,0,0,0-3-1.26,4.36,4.36,0,0,0-2.35.87,0.42,0.42,0,0,1-.22.11,0.28,0.28,0,0,1-.22-0.34V41.35a0.24,0.24,0,0,0-.28-0.28h-1.68a0.24,0.24,0,0,0-.28.28v12a0.24,0.24,0,0,0,.28.28h2a0.24,0.24,0,0,0,.28-0.28V45.83a2.53,2.53,0,0,1,2.24-2.52,2.49,2.49,0,0,1,2.24,2.52v7.56a0.24,0.24,0,0,0,.28.28h2a0.24,0.24,0,0,0,.28-0.28V45.83a2.55,2.55,0,0,1,2.24-2.52,2.49,2.49,0,0,1,2.24,2.52v7.56a0.24,0.24,0,0,0,.28.28h2a0.24,0.24,0,0,0,.28-0.28m-22.88-6.27a0.27,0.27,0,0,1-.31.25h-2.94a0.27,0.27,0,0,1-.31-0.25,6.07,6.07,0,0,1,.2-0.76l1.2-4.59c0.06-.2.28-1,0.34-1.26h0.11c0.06,0.22.28,1,.34,1.23l1.2,4.73a4.38,4.38,0,0,1,.17.64m4.51,6.33a5.8,5.8,0,0,0-.25-0.87l-5-16.35a0.25,0.25,0,0,0-.28-0.2h-1.51a0.25,0.25,0,0,0-.28.2l-5,16.27a6.49,6.49,0,0,0-.28,1,0.25,0.25,0,0,0,.31.22h2.1a0.25,0.25,0,0,0,.28-0.2l1-3.7a0.23,0.23,0,0,1,.28-0.17h4.54a0.23,0.23,0,0,1,.28.17l1,3.7a0.25,0.25,0,0,0,.28.2h2.1a0.25,0.25,0,0,0,.31-0.22m-19.32-.06v-12a0.24,0.24,0,0,0-.28-0.28h-2a0.24,0.24,0,0,0-.28.28v12a0.24,0.24,0,0,0,.28.28h2a0.24,0.24,0,0,0,.28-0.28m0.28-16.1a1.54,1.54,0,1,0-1.54,1.54,1.52,1.52,0,0,0,1.54-1.54M377,53.39V51.71a0.24,0.24,0,0,0-.28-0.28h-5.43a0.25,0.25,0,0,1-.31-0.22,1.65,1.65,0,0,1,.25-0.53l5.32-8.82a1.35,1.35,0,0,0,.25-0.53,0.25,0.25,0,0,0-.31-0.22H367.2a0.24,0.24,0,0,0-.28.28v1.68a0.24,0.24,0,0,0,.28.28h4.9a0.25,0.25,0,0,1,.31.22,1.12,1.12,0,0,1-.22.48L367,52.78a2.22,2.22,0,0,0-.34.67,0.25,0.25,0,0,0,.31.22h9.77a0.24,0.24,0,0,0,.28-0.28m-12.49,0v-12a0.24,0.24,0,0,0-.28-0.28h-2a0.24,0.24,0,0,0-.28.28v12a0.24,0.24,0,0,0,.28.28h2a0.24,0.24,0,0,0,.28-0.28m0.28-16.1a1.54,1.54,0,1,0-1.54,1.54,1.52,1.52,0,0,0,1.54-1.54m-4.7,4a0.23,0.23,0,0,0-.28-0.22h-2.1a0.27,0.27,0,0,0-.25.17l-2.94,7.53a7.46,7.46,0,0,0-.31,1.09h-0.11a6.57,6.57,0,0,0-.31-1.09l-2.94-7.53a0.27,0.27,0,0,0-.25-0.17h-2.1a0.23,0.23,0,0,0-.28.22,2.29,2.29,0,0,0,.2.59l4.7,11.62a0.27,0.27,0,0,0,.25.17h1.57a0.27,0.27,0,0,0,.25-0.17l4.7-11.62a2.38,2.38,0,0,0,.2-0.59m-13.44,2.32V41.41a0.24,0.24,0,0,0-.22-0.28,5.23,5.23,0,0,0-.76-0.06,3.66,3.66,0,0,0-2.35,1.4,0.21,0.21,0,0,1-.2.11,0.3,0.3,0,0,1-.25-0.34v-0.9a0.24,0.24,0,0,0-.28-0.28h-1.68a0.24,0.24,0,0,0-.28.28v12a0.24,0.24,0,0,0,.28.28h2a0.24,0.24,0,0,0,.28-0.28V46.11a2.24,2.24,0,0,1,2.49-2.38,4,4,0,0,1,.78.14,0.22,0.22,0,0,0,.22-0.25m-11.14,1.93a0.24,0.24,0,0,1-.28.28h-4.48a0.24,0.24,0,0,1-.28-0.28,2.52,2.52,0,1,1,5,0m2.52,2v-2a5,5,0,0,0-10.08,0v3.64c0,2.8,2,4.76,5,4.76a4.8,4.8,0,0,0,3.86-1.57,4,4,0,0,0,.81-1.29,0.26,0.26,0,0,0-.17-0.22l-1.6-.81a0.94,0.94,0,0,0-.34-0.14,0.26,0.26,0,0,0-.22.17A2.64,2.64,0,0,1,333,51.71a2.55,2.55,0,0,1-2.52-2.52V48.07a0.24,0.24,0,0,1,.28-0.28h7a0.24,0.24,0,0,0,.28-0.28m-12.6,1.68c0-3.33-2.27-4.62-4.37-5.57-1.88-.87-3.64-1.48-3.64-3.11A2.55,2.55,0,0,1,319.91,38h0.45a2.64,2.64,0,0,1,2.32,1.57,0.26,0.26,0,0,0,.22.17,1.18,1.18,0,0,0,.42-0.17l1.51-.76a0.27,0.27,0,0,0,.17-0.25,2.44,2.44,0,0,0-.39-0.76,4.74,4.74,0,0,0-4.26-2h-0.45c-3.08,0-5,2-5,4.76,0,3.28,2.44,4.4,4.62,5.38,1.76,0.81,3.39,1.54,3.39,3.3a2.55,2.55,0,0,1-2.52,2.52h-1.18a2.59,2.59,0,0,1-2.32-1.6,0.26,0.26,0,0,0-.22-0.2,1.55,1.55,0,0,0-.5.22l-1.43.73a0.21,0.21,0,0,0-.14.22,2.15,2.15,0,0,0,.39.81,4.59,4.59,0,0,0,4.23,2h1.18c3.08,0,5-2,5-4.76"/></svg>